<?xml version="1.0" encoding="UTF-8"?>
<svg width="1000px" height="153px" viewBox="0 0 1000 153" version="1.1" xmlns="http://www.w3.org/2000/svg" xmlns:xlink="http://www.w3.org/1999/xlink">
    <!-- Generator: Sketch 48.2 (47327) - http://www.bohemiancoding.com/sketch -->
    <title>TNPayments_Logo</title>
    <desc>Created with Sketch.</desc>
    <defs>
        <polygon id="path-1" points="0.06 0.655 251.126 0.655 251.126 153 0.06 153"></polygon>
    </defs>
    <g id="Page-2" stroke="none" stroke-width="1" fill="none" fill-rule="evenodd">
        <g id="TNPayments_Logo">
            <g id="Group-4">
                <mask id="mask-2" fill="white">
                    <use xlink:href="#path-1"></use>
                </mask>
                <g id="Clip-2"></g>
                <path d="M251.126,28.702 L250.981,17.134 C250.981,8.035 243.602,0.655 234.502,0.655 L16.482,0.655 C7.376,0.655 0,8.035 0,17.134 L0.146,28.702 L251.126,28.702" id="Fill-1" fill="#1B5C97" mask="url(#mask-2)"></path>
                <path d="M92.051,63.655 L0,63.655 L0,136.522 C0,145.623 7.378,153 16.482,153 L68.46,153 L98.423,72.934 C100.146,68.463 96.844,63.655 92.051,63.655" id="Fill-3" fill="#9EA0A0" mask="url(#mask-2)"></path>
            </g>
            <path d="M151.978,63.655 C144.512,63.655 137.81,68.238 135.097,75.195 L106.021,153 L234.502,153 C243.602,153 250.981,145.623 250.981,136.522 L250.981,63.655 L151.978,63.655" id="Fill-5" fill="#9EA0A0"></path>
            <path d="M339.139,121.416 C339.961,121.416 340.683,121.311 341.307,121.098 C341.932,120.885 342.454,120.582 342.874,120.192 C343.296,119.803 343.611,119.336 343.824,118.793 C344.038,118.25 344.144,117.649 344.144,116.99 C344.144,115.66 343.73,114.617 342.904,113.856 C342.077,113.096 340.822,112.715 339.139,112.715 L335.763,112.715 L335.763,121.416 L339.139,121.416 Z M339.139,110.174 C340.539,110.174 341.756,110.338 342.791,110.66 C343.824,110.987 344.681,111.446 345.362,112.039 C346.041,112.633 346.546,113.348 346.875,114.19 C347.205,115.031 347.37,115.965 347.37,116.99 C347.37,118.016 347.192,118.955 346.837,119.813 C346.482,120.668 345.96,121.406 345.271,122.026 C344.582,122.645 343.72,123.123 342.691,123.463 C341.662,123.803 340.479,123.973 339.139,123.973 L335.763,123.973 L335.763,132.022 L332.521,132.022 L332.521,110.174 L339.139,110.174 Z" id="Fill-6" fill="#8A8D8B"></path>
            <path d="M363.39,123.881 L360.148,115.408 C359.915,114.83 359.683,114.1 359.448,113.217 C359.337,113.653 359.224,114.059 359.106,114.434 C358.989,114.811 358.875,115.145 358.765,115.438 L355.539,123.881 L363.39,123.881 Z M369.793,132.022 L367.298,132.022 C367.013,132.022 366.78,131.949 366.598,131.807 C366.416,131.666 366.285,131.483 366.202,131.26 L364.271,126.194 L354.64,126.194 L352.708,131.26 C352.639,131.453 352.506,131.629 352.313,131.785 C352.121,131.942 351.888,132.022 351.614,132.022 L349.119,132.022 L357.82,110.174 L361.092,110.174 L369.793,132.022 Z" id="Fill-7" fill="#8A8D8B"></path>
            <path d="M381.173,123.379 L381.173,132.022 L377.946,132.022 L377.946,123.379 L369.946,110.174 L372.791,110.174 C373.073,110.174 373.302,110.244 373.474,110.379 C373.646,110.516 373.789,110.697 373.901,110.92 L378.647,119.09 C378.841,119.465 379.015,119.821 379.171,120.155 C379.331,120.488 379.469,120.819 379.591,121.143 C379.702,120.819 379.831,120.488 379.979,120.155 C380.126,119.821 380.296,119.465 380.488,119.09 L385.219,110.92 C385.321,110.738 385.46,110.567 385.638,110.41 C385.815,110.254 386.041,110.174 386.315,110.174 L389.176,110.174 L381.173,123.379" id="Fill-8" fill="#8A8D8B"></path>
            <path d="M417.244,110.174 L417.244,132.022 L414.414,132.022 L414.414,116.473 C414.414,116.24 414.422,115.99 414.436,115.729 C414.451,115.465 414.471,115.196 414.49,114.922 L407.218,128.262 C406.963,128.76 406.574,129.01 406.048,129.01 L405.591,129.01 C405.062,129.01 404.677,128.76 404.434,128.262 L397.024,114.875 C397.085,115.444 397.116,115.977 397.116,116.473 L397.116,132.022 L394.272,132.022 L394.272,110.174 L396.676,110.174 C396.959,110.174 397.179,110.201 397.337,110.26 C397.495,110.315 397.645,110.469 397.785,110.723 L405.088,123.805 C405.229,124.071 405.362,124.348 405.484,124.641 C405.605,124.938 405.721,125.231 405.834,125.526 C406.048,124.926 406.295,124.348 406.578,123.791 L413.744,110.723 C413.876,110.469 414.02,110.315 414.179,110.26 C414.335,110.201 414.555,110.174 414.84,110.174 L417.244,110.174" id="Fill-9" fill="#8A8D8B"></path>
            <polyline id="Fill-10" fill="#8A8D8B" points="438.449 129.389 438.434 132.022 424.895 132.022 424.895 110.174 438.434 110.174 438.434 112.805 428.151 112.805 428.151 119.729 436.426 119.729 436.426 122.268 428.151 122.268 428.151 129.389 438.449 129.389"></polyline>
            <path d="M462.197,110.174 L462.197,132.022 L460.555,132.022 C460.303,132.022 460.091,131.975 459.924,131.883 C459.757,131.793 459.587,131.647 459.415,131.442 L447.077,115.485 C447.096,115.758 447.114,116.026 447.129,116.289 C447.144,116.555 447.153,116.803 447.153,117.035 L447.153,132.022 L444.308,132.022 L444.308,110.174 L445.98,110.174 C446.266,110.174 446.478,110.207 446.62,110.274 C446.761,110.34 446.92,110.488 447.091,110.723 L459.461,126.697 C459.43,126.403 459.406,126.115 459.391,125.836 C459.376,125.557 459.37,125.297 459.37,125.053 L459.37,110.174 L462.197,110.174" id="Fill-11" fill="#8A8D8B"></path>
            <polyline id="Fill-12" fill="#8A8D8B" points="484.651 112.883 477.713 112.883 477.713 132.022 474.49 132.022 474.49 112.883 467.522 112.883 467.522 110.174 484.651 110.174 484.651 112.883"></polyline>
            <path d="M501.416,113.735 C501.316,113.906 501.209,114.033 501.097,114.113 C500.986,114.196 500.844,114.237 500.672,114.237 C500.49,114.237 500.28,114.153 500.048,113.985 C499.815,113.819 499.523,113.631 499.173,113.422 C498.823,113.215 498.405,113.028 497.918,112.86 C497.431,112.692 496.848,112.61 496.169,112.61 C495.529,112.61 494.969,112.692 494.488,112.86 C494.005,113.028 493.602,113.254 493.278,113.545 C492.952,113.834 492.707,114.172 492.541,114.563 C492.373,114.953 492.289,115.377 492.289,115.834 C492.289,116.422 492.438,116.908 492.736,117.295 C493.037,117.68 493.431,118.01 493.916,118.283 C494.403,118.557 494.956,118.795 495.576,118.998 C496.193,119.201 496.828,119.412 497.477,119.629 C498.125,119.848 498.76,120.098 499.378,120.383 C499.996,120.666 500.55,121.024 501.035,121.455 C501.523,121.885 501.917,122.412 502.215,123.037 C502.515,123.66 502.665,124.424 502.665,125.328 C502.665,126.291 502.499,127.194 502.169,128.035 C501.84,128.877 501.361,129.612 500.733,130.242 C500.103,130.869 499.331,131.363 498.413,131.725 C497.495,132.084 496.452,132.264 495.286,132.264 C494.586,132.264 493.907,132.196 493.248,132.059 C492.589,131.922 491.964,131.729 491.377,131.481 C490.788,131.233 490.237,130.934 489.726,130.582 C489.212,130.235 488.753,129.84 488.349,129.405 L489.276,127.852 C489.367,127.731 489.476,127.629 489.604,127.549 C489.73,127.467 489.874,127.426 490.037,127.426 C490.25,127.426 490.496,127.539 490.774,127.762 C491.053,127.985 491.398,128.231 491.81,128.498 C492.221,128.768 492.713,129.014 493.285,129.237 C493.859,129.461 494.555,129.571 495.377,129.571 C496.048,129.571 496.646,129.483 497.172,129.305 C497.699,129.127 498.143,128.875 498.503,128.545 C498.862,128.215 499.141,127.817 499.333,127.35 C499.526,126.883 499.621,126.367 499.621,125.799 C499.621,125.16 499.474,124.637 499.18,124.233 C498.886,123.826 498.497,123.487 498.009,123.213 C497.522,122.94 496.97,122.705 496.35,122.512 C495.732,122.321 495.099,122.119 494.449,121.912 C493.8,121.705 493.166,121.463 492.547,121.19 C491.93,120.914 491.377,120.557 490.89,120.115 C490.402,119.676 490.011,119.121 489.718,118.459 C489.424,117.793 489.276,116.975 489.276,116.002 C489.276,115.221 489.428,114.465 489.732,113.735 C490.037,113.004 490.48,112.358 491.064,111.795 C491.647,111.233 492.365,110.781 493.217,110.44 C494.068,110.1 495.042,109.932 496.139,109.932 C497.366,109.932 498.493,110.125 499.523,110.516 C500.553,110.906 501.447,111.467 502.208,112.197 L501.416,113.735" id="Fill-13" fill="#8A8D8B"></path>
            <path d="M532.917,121.891 C532.917,120.569 533.383,119.442 534.317,118.506 C535.254,117.571 536.38,117.102 537.702,117.102 C539.021,117.102 540.152,117.571 541.088,118.506 C542.027,119.442 542.497,120.569 542.497,121.891 C542.497,123.213 542.027,124.342 541.088,125.278 C540.152,126.213 539.021,126.682 537.702,126.682 C536.38,126.682 535.254,126.213 534.317,125.278 C533.383,124.342 532.917,123.213 532.917,121.891" id="Fill-14" fill="#8A8D8B"></path>
            <polyline id="Fill-15" fill="#8A8D8B" points="586.439 112.883 579.499 112.883 579.499 132.022 576.275 132.022 576.275 112.883 569.311 112.883 569.311 110.174 586.439 110.174 586.439 112.883"></polyline>
            <polyline id="Fill-16" fill="#8A8D8B" points="605.333 129.389 605.316 132.022 591.777 132.022 591.777 110.174 605.316 110.174 605.316 112.805 595.036 112.805 595.036 119.729 603.311 119.729 603.311 122.268 595.036 122.268 595.036 129.389 605.333 129.389"></polyline>
            <path d="M625.99,127.334 C626.173,127.334 626.331,127.406 626.465,127.549 L627.74,128.947 C626.849,130.002 625.761,130.819 624.477,131.397 C623.193,131.975 621.653,132.264 619.848,132.264 C618.265,132.264 616.833,131.99 615.55,131.442 C614.267,130.895 613.17,130.129 612.26,129.145 C611.354,128.162 610.65,126.985 610.155,125.615 C609.658,124.246 609.41,122.74 609.41,121.098 C609.41,119.455 609.672,117.949 610.194,116.578 C610.716,115.209 611.446,114.033 612.392,113.049 C613.334,112.067 614.462,111.301 615.775,110.752 C617.09,110.205 618.542,109.932 620.136,109.932 C621.688,109.932 623.067,110.186 624.271,110.692 C625.481,111.199 626.53,111.873 627.422,112.715 L626.356,114.221 C626.286,114.334 626.2,114.424 626.091,114.494 C625.986,114.567 625.843,114.602 625.674,114.602 C625.481,114.602 625.255,114.504 624.994,114.313 C624.737,114.119 624.398,113.905 623.976,113.666 C623.555,113.428 623.037,113.211 622.419,113.02 C621.797,112.826 621.026,112.731 620.104,112.731 C619.021,112.731 618.024,112.92 617.125,113.301 C616.22,113.682 615.44,114.229 614.788,114.944 C614.135,115.658 613.626,116.537 613.265,117.576 C612.904,118.615 612.726,119.789 612.726,121.098 C612.726,122.426 612.913,123.608 613.291,124.641 C613.665,125.676 614.183,126.555 614.84,127.274 C615.501,127.994 616.275,128.543 617.168,128.918 C618.06,129.293 619.024,129.481 620.062,129.481 C620.688,129.481 621.253,129.442 621.754,129.365 C622.259,129.289 622.719,129.176 623.142,129.024 C623.559,128.871 623.959,128.676 624.333,128.438 C624.707,128.199 625.077,127.914 625.442,127.578 C625.526,127.508 625.612,127.449 625.703,127.403 C625.795,127.358 625.892,127.334 625.99,127.334" id="Fill-17" fill="#8A8D8B"></path>
            <polyline id="Fill-18" fill="#8A8D8B" points="651.034 110.174 651.034 132.022 647.792 132.022 647.792 122.178 636.397 122.178 636.397 132.022 633.144 132.022 633.144 110.174 636.397 110.174 636.397 119.821 647.792 119.821 647.792 110.174 651.034 110.174"></polyline>
            <path d="M676.576,110.174 L676.576,132.022 L674.932,132.022 C674.679,132.022 674.47,131.975 674.301,131.883 C674.135,131.793 673.966,131.647 673.792,131.442 L661.454,115.485 C661.475,115.758 661.493,116.026 661.505,116.289 C661.523,116.555 661.532,116.803 661.532,117.035 L661.532,132.022 L658.686,132.022 L658.686,110.174 L660.357,110.174 C660.645,110.174 660.856,110.207 660.996,110.274 C661.14,110.34 661.296,110.488 661.471,110.723 L673.835,126.697 C673.805,126.403 673.783,126.115 673.77,125.836 C673.753,125.557 673.744,125.297 673.744,125.053 L673.744,110.174 L676.576,110.174" id="Fill-19" fill="#8A8D8B"></path>
            <path d="M701.388,121.098 C701.388,119.801 701.21,118.633 700.856,117.598 C700.501,116.565 699.996,115.688 699.343,114.967 C698.686,114.246 697.899,113.694 696.967,113.309 C696.041,112.924 695.006,112.731 693.857,112.731 C692.712,112.731 691.673,112.924 690.746,113.309 C689.82,113.694 689.023,114.246 688.366,114.967 C687.705,115.688 687.2,116.565 686.845,117.598 C686.491,118.633 686.313,119.801 686.313,121.098 C686.313,122.406 686.491,123.574 686.845,124.604 C687.2,125.633 687.705,126.508 688.366,127.229 C689.023,127.949 689.82,128.498 690.746,128.879 C691.673,129.26 692.712,129.449 693.857,129.449 C695.006,129.449 696.041,129.26 696.967,128.879 C697.899,128.498 698.686,127.949 699.343,127.229 C699.996,126.508 700.501,125.633 700.856,124.604 C701.21,123.574 701.388,122.406 701.388,121.098 Z M704.703,121.098 C704.703,122.731 704.442,124.229 703.92,125.592 C703.398,126.957 702.663,128.133 701.705,129.121 C700.753,130.112 699.612,130.879 698.285,131.428 C696.954,131.975 695.479,132.248 693.857,132.248 C692.243,132.248 690.772,131.975 689.437,131.428 C688.105,130.879 686.966,130.112 686.017,129.121 C685.068,128.133 684.329,126.957 683.803,125.592 C683.275,124.229 683.011,122.731 683.011,121.098 C683.011,119.475 683.275,117.979 683.803,116.61 C684.329,115.24 685.068,114.061 686.017,113.072 C686.966,112.084 688.105,111.313 689.437,110.76 C690.772,110.207 692.243,109.932 693.857,109.932 C695.479,109.932 696.954,110.207 698.285,110.76 C699.612,111.313 700.753,112.084 701.705,113.072 C702.663,114.061 703.398,115.24 703.92,116.61 C704.442,117.979 704.703,119.475 704.703,121.098 Z" id="Fill-20" fill="#8A8D8B"></path>
            <polyline id="Fill-21" fill="#8A8D8B" points="723.646 129.297 723.646 132.022 711.139 132.022 711.139 110.174 714.379 110.174 714.379 129.297 723.646 129.297"></polyline>
            <path d="M745.277,121.098 C745.277,119.801 745.099,118.633 744.746,117.598 C744.391,116.565 743.886,115.688 743.232,114.967 C742.575,114.246 741.788,113.694 740.856,113.309 C739.931,112.924 738.896,112.731 737.747,112.731 C736.602,112.731 735.563,112.924 734.636,113.309 C733.71,113.694 732.913,114.246 732.256,114.967 C731.595,115.688 731.09,116.565 730.733,117.598 C730.381,118.633 730.202,119.801 730.202,121.098 C730.202,122.406 730.381,123.574 730.733,124.604 C731.09,125.633 731.595,126.508 732.256,127.229 C732.913,127.949 733.71,128.498 734.636,128.879 C735.563,129.26 736.602,129.449 737.747,129.449 C738.896,129.449 739.931,129.26 740.856,128.879 C741.788,128.498 742.575,127.949 743.232,127.229 C743.886,126.508 744.391,125.633 744.746,124.604 C745.099,123.574 745.277,122.406 745.277,121.098 Z M748.593,121.098 C748.593,122.731 748.331,124.229 747.81,125.592 C747.288,126.957 746.553,128.133 745.595,129.121 C744.643,130.112 743.502,130.879 742.175,131.428 C740.844,131.975 739.369,132.248 737.747,132.248 C736.133,132.248 734.662,131.975 733.326,131.428 C731.995,130.879 730.855,130.112 729.906,129.121 C728.958,128.133 728.219,126.957 727.692,125.592 C727.165,124.229 726.9,122.731 726.9,121.098 C726.9,119.475 727.165,117.979 727.692,116.61 C728.219,115.24 728.958,114.061 729.906,113.072 C730.855,112.084 731.995,111.313 733.326,110.76 C734.662,110.207 736.133,109.932 737.747,109.932 C739.369,109.932 740.844,110.207 742.175,110.76 C743.502,111.313 744.643,112.084 745.595,113.072 C746.553,114.061 747.288,115.24 747.81,116.61 C748.331,117.979 748.593,119.475 748.593,121.098 Z" id="Fill-22" fill="#8A8D8B"></path>
            <path d="M772.887,121.387 L772.887,129.906 C771.781,130.697 770.606,131.287 769.358,131.678 C768.109,132.069 766.752,132.264 765.282,132.264 C763.516,132.264 761.923,131.99 760.497,131.442 C759.073,130.895 757.86,130.129 756.854,129.145 C755.85,128.162 755.075,126.985 754.535,125.615 C753.991,124.246 753.718,122.74 753.718,121.098 C753.718,119.446 753.979,117.932 754.505,116.557 C755.028,115.182 755.775,114.006 756.745,113.028 C757.721,112.049 758.899,111.287 760.283,110.744 C761.671,110.201 763.224,109.932 764.947,109.932 C765.821,109.932 766.627,109.998 767.374,110.129 C768.118,110.262 768.81,110.447 769.45,110.692 C770.089,110.936 770.681,111.227 771.221,111.567 C771.765,111.906 772.269,112.289 772.734,112.715 L771.808,114.176 C771.664,114.41 771.478,114.557 771.247,114.617 C771.012,114.678 770.759,114.621 770.485,114.449 C770.221,114.297 769.929,114.119 769.61,113.916 C769.288,113.713 768.91,113.528 768.471,113.354 C768.027,113.182 767.514,113.035 766.927,112.912 C766.335,112.791 765.644,112.731 764.843,112.731 C763.642,112.731 762.563,112.926 761.602,113.317 C760.635,113.707 759.813,114.266 759.134,114.998 C758.456,115.729 757.934,116.608 757.568,117.637 C757.203,118.666 757.021,119.821 757.021,121.098 C757.021,122.436 757.216,123.635 757.599,124.696 C757.985,125.756 758.529,126.653 759.234,127.389 C759.938,128.123 760.797,128.684 761.806,129.071 C762.815,129.455 763.941,129.647 765.189,129.647 C765.678,129.647 766.13,129.619 766.553,129.563 C766.974,129.508 767.374,129.43 767.763,129.328 C768.148,129.227 768.519,129.1 768.88,128.947 C769.241,128.795 769.599,128.629 769.95,128.446 L769.95,123.867 L766.726,123.867 C766.526,123.867 766.36,123.805 766.234,123.684 C766.104,123.563 766.044,123.41 766.044,123.229 L766.044,121.387 L772.887,121.387" id="Fill-23" fill="#8A8D8B"></path>
            <path d="M787.979,123.379 L787.979,132.022 L784.756,132.022 L784.756,123.379 L776.755,110.174 L779.6,110.174 C779.883,110.174 780.108,110.244 780.283,110.379 C780.456,110.516 780.596,110.697 780.709,110.92 L785.456,119.09 C785.647,119.465 785.821,119.821 785.982,120.155 C786.139,120.488 786.278,120.819 786.399,121.143 C786.508,120.819 786.64,120.488 786.787,120.155 C786.935,119.821 787.105,119.465 787.296,119.09 L792.025,110.92 C792.13,110.738 792.269,110.567 792.447,110.41 C792.621,110.254 792.848,110.174 793.122,110.174 L795.985,110.174 L787.979,123.379" id="Fill-24" fill="#8A8D8B"></path>
            <path d="M824.921,121.891 C824.921,120.569 825.387,119.442 826.321,118.506 C827.257,117.571 828.383,117.102 829.707,117.102 C831.024,117.102 832.155,117.571 833.096,118.506 C834.03,119.442 834.501,120.569 834.501,121.891 C834.501,123.213 834.03,124.342 833.096,125.278 C832.155,126.213 831.024,126.682 829.707,126.682 C828.383,126.682 827.257,126.213 826.321,125.278 C825.387,124.342 824.921,123.213 824.921,121.891" id="Fill-25" fill="#8A8D8B"></path>
            <polyline id="Fill-26" fill="#8A8D8B" points="878.46 112.883 871.521 112.883 871.521 132.022 868.297 132.022 868.297 112.883 861.331 112.883 861.331 110.174 878.46 110.174 878.46 112.883"></polyline>
            <path d="M889.989,120.703 C890.82,120.703 891.556,120.602 892.19,120.399 C892.821,120.196 893.353,119.908 893.778,119.539 C894.205,119.168 894.522,118.727 894.736,118.215 C894.948,117.703 895.058,117.137 895.058,116.518 C895.058,115.262 894.645,114.313 893.818,113.674 C892.991,113.035 891.751,112.715 890.098,112.715 L887.04,112.715 L887.04,120.703 L889.989,120.703 Z M900.183,132.022 L897.294,132.022 C896.716,132.022 896.293,131.793 896.032,131.336 L890.629,123.76 C890.459,123.506 890.268,123.326 890.067,123.221 C889.863,123.113 889.56,123.061 889.153,123.061 L887.04,123.061 L887.04,132.022 L883.798,132.022 L883.798,110.174 L890.098,110.174 C891.508,110.174 892.722,110.321 893.739,110.608 C894.762,110.897 895.602,111.309 896.267,111.84 C896.928,112.373 897.425,113.016 897.743,113.766 C898.06,114.516 898.22,115.358 898.22,116.289 C898.22,117.051 898.103,117.766 897.872,118.436 C897.638,119.104 897.294,119.705 896.846,120.238 C896.394,120.772 895.841,121.231 895.192,121.615 C894.544,122 893.809,122.295 892.987,122.498 C893.392,122.74 893.744,123.08 894.034,123.516 L900.183,132.022 Z" id="Fill-27" fill="#8A8D8B"></path>
            <path d="M913.448,129.42 C914.322,129.42 915.101,129.272 915.792,128.979 C916.48,128.684 917.063,128.27 917.542,127.738 C918.021,127.205 918.382,126.572 918.639,125.836 C918.891,125.1 919.017,124.287 919.017,123.395 L919.017,110.174 L922.24,110.174 L922.24,123.395 C922.24,124.672 922.041,125.856 921.637,126.94 C921.228,128.026 920.645,128.963 919.883,129.754 C919.125,130.545 918.199,131.164 917.115,131.61 C916.032,132.057 914.811,132.28 913.448,132.28 C912.09,132.28 910.868,132.057 909.785,131.61 C908.697,131.164 907.774,130.545 907.013,129.754 C906.251,128.963 905.67,128.026 905.265,126.94 C904.859,125.856 904.655,124.672 904.655,123.395 L904.655,110.174 L907.896,110.174 L907.896,123.379 C907.896,124.272 908.023,125.088 908.271,125.828 C908.519,126.569 908.88,127.205 909.358,127.738 C909.833,128.27 910.416,128.684 911.107,128.979 C911.794,129.272 912.578,129.42 913.448,129.42" id="Fill-28" fill="#8A8D8B"></path>
            <path d="M940.739,113.735 C940.639,113.906 940.53,114.033 940.421,114.113 C940.309,114.196 940.17,114.237 939.996,114.237 C939.813,114.237 939.604,114.153 939.374,113.985 C939.138,113.819 938.848,113.631 938.495,113.422 C938.147,113.215 937.729,113.028 937.242,112.86 C936.755,112.692 936.172,112.61 935.492,112.61 C934.854,112.61 934.291,112.692 933.809,112.86 C933.33,113.028 932.926,113.254 932.604,113.545 C932.278,113.834 932.03,114.172 931.864,114.563 C931.695,114.953 931.611,115.377 931.611,115.834 C931.611,116.422 931.765,116.908 932.061,117.295 C932.36,117.68 932.751,118.01 933.239,118.283 C933.727,118.557 934.278,118.795 934.901,118.998 C935.519,119.201 936.149,119.412 936.803,119.629 C937.45,119.848 938.082,120.098 938.704,120.383 C939.322,120.666 939.874,121.024 940.361,121.455 C940.849,121.885 941.24,122.412 941.54,123.037 C941.84,123.66 941.988,124.424 941.988,125.328 C941.988,126.291 941.823,127.194 941.493,128.035 C941.166,128.877 940.684,129.612 940.056,130.242 C939.425,130.869 938.655,131.363 937.737,131.725 C936.819,132.084 935.775,132.264 934.609,132.264 C933.909,132.264 933.231,132.196 932.574,132.059 C931.913,131.922 931.29,131.729 930.697,131.481 C930.111,131.233 929.563,130.934 929.05,130.582 C928.536,130.235 928.079,129.84 927.675,129.405 L928.601,127.852 C928.692,127.731 928.802,127.629 928.927,127.549 C929.054,127.467 929.198,127.426 929.362,127.426 C929.576,127.426 929.82,127.539 930.098,127.762 C930.377,127.985 930.724,128.231 931.133,128.498 C931.543,128.768 932.038,129.014 932.608,129.237 C933.183,129.461 933.878,129.571 934.701,129.571 C935.371,129.571 935.967,129.483 936.498,129.305 C937.024,129.127 937.468,128.875 937.829,128.545 C938.187,128.215 938.464,127.817 938.655,127.35 C938.848,126.883 938.946,126.367 938.946,125.799 C938.946,125.16 938.799,124.637 938.503,124.233 C938.212,123.826 937.821,123.487 937.333,123.213 C936.846,122.94 936.293,122.705 935.675,122.512 C935.058,122.321 934.423,122.119 933.773,121.912 C933.126,121.705 932.49,121.463 931.872,121.19 C931.251,120.914 930.697,120.557 930.215,120.115 C929.728,119.676 929.336,119.121 929.04,118.459 C928.749,117.793 928.601,116.975 928.601,116.002 C928.601,115.221 928.753,114.465 929.059,113.735 C929.362,113.004 929.806,112.358 930.39,111.795 C930.973,111.233 931.69,110.781 932.543,110.44 C933.392,110.1 934.366,109.932 935.462,109.932 C936.689,109.932 937.815,110.125 938.848,110.516 C939.874,110.906 940.771,111.467 941.532,112.197 L940.739,113.735" id="Fill-29" fill="#8A8D8B"></path>
            <polyline id="Fill-30" fill="#8A8D8B" points="963.528 112.883 956.593 112.883 956.593 132.022 953.369 132.022 953.369 112.883 946.399 112.883 946.399 110.174 963.528 110.174 963.528 112.883"></polyline>
            <polyline id="Fill-31" fill="#1B5C97" points="368.619 35.379 352.909 35.379 346.624 86.289 332.867 86.289 339.067 35.379 323.271 35.379 324.629 24.424 370.063 24.424 368.619 35.379"></polyline>
            <path d="M390.527,53.637 C392.508,53.637 394.192,53.333 395.58,52.723 C396.966,52.116 398.092,51.301 398.956,50.283 C399.817,49.264 400.441,48.075 400.822,46.716 C401.206,45.357 401.396,43.927 401.396,42.428 C401.396,41.267 401.227,40.214 400.887,39.264 C400.548,38.317 400.018,37.509 399.295,36.843 C398.573,36.179 397.666,35.663 396.578,35.294 C395.486,34.926 394.207,34.743 392.734,34.743 L387.81,34.743 L385.473,53.637 L390.527,53.637 Z M394.01,24.424 C397.801,24.424 401.035,24.827 403.711,25.633 C406.385,26.441 408.573,27.553 410.27,28.967 C411.969,30.382 413.207,32.06 413.985,34 C414.764,35.938 415.153,38.04 415.153,40.304 C415.153,42.569 414.849,44.727 414.24,46.779 C413.631,48.833 412.748,50.715 411.588,52.426 C410.426,54.139 409.01,55.654 407.342,56.969 C405.671,58.286 403.759,59.37 401.61,60.219 C402.458,60.7 403.237,61.287 403.944,61.981 C404.651,62.674 405.245,63.516 405.728,64.507 L414.729,86.289 L402.245,86.289 C401.085,86.289 400.115,86.055 399.337,85.588 C398.558,85.121 397.999,84.479 397.659,83.656 L390.951,65.356 C390.611,64.592 390.187,64.04 389.678,63.7 C389.167,63.36 388.403,63.19 387.386,63.19 L384.286,63.19 L381.44,86.289 L367.684,86.289 L375.241,24.424 L394.01,24.424 Z" id="Fill-32" fill="#1B5C97"></path>
            <path d="M455.449,62.723 L452.435,45.059 C452.208,43.956 451.96,42.647 451.69,41.132 C451.423,39.618 451.159,37.984 450.905,36.228 C450.226,38.012 449.554,39.661 448.888,41.174 C448.223,42.69 447.651,44.013 447.17,45.145 L439.909,62.723 L455.449,62.723 Z M473.835,86.289 L463.135,86.289 C461.945,86.289 461.019,86.012 460.353,85.461 C459.687,84.908 459.228,84.18 458.973,83.274 L457.062,72.149 L436.045,72.149 L431.46,83.274 C431.062,84.039 430.433,84.733 429.569,85.354 C428.706,85.977 427.723,86.289 426.618,86.289 L415.747,86.289 L445.301,24.424 L459.482,24.424 L473.835,86.289 Z" id="Fill-33" fill="#1B5C97"></path>
            <path d="M535.741,24.424 L528.097,86.289 L520.879,86.289 C519.802,86.289 518.932,86.114 518.266,85.758 C517.601,85.404 516.973,84.817 516.378,83.996 L494.767,45.782 C494.681,47.424 494.553,48.896 494.383,50.198 L490.137,86.289 L477.91,86.289 L485.552,24.424 L492.856,24.424 C493.45,24.424 493.952,24.445 494.362,24.488 C494.772,24.53 495.134,24.63 495.445,24.785 C495.756,24.941 496.039,25.161 496.295,25.442 C496.55,25.727 496.818,26.094 497.101,26.548 L518.798,64.762 C518.884,63.77 518.966,62.823 519.054,61.917 C519.137,61.012 519.237,60.163 519.35,59.37 L523.512,24.424 L535.741,24.424" id="Fill-34" fill="#1B5C97"></path>
            <path d="M576.973,36.823 C576.464,37.475 575.967,37.964 575.484,38.288 C575.001,38.613 574.423,38.776 573.744,38.776 C573.092,38.776 572.442,38.563 571.79,38.139 C571.139,37.714 570.411,37.247 569.603,36.738 C568.798,36.228 567.871,35.761 566.822,35.337 C565.772,34.912 564.542,34.7 563.128,34.7 C561.827,34.7 560.688,34.883 559.708,35.252 C558.733,35.62 557.92,36.13 557.269,36.78 C556.62,37.432 556.127,38.196 555.807,39.073 C555.479,39.951 555.313,40.914 555.313,41.96 C555.313,43.092 555.636,44.041 556.271,44.805 C556.907,45.569 557.76,46.242 558.821,46.822 C559.879,47.403 561.074,47.934 562.406,48.415 C563.737,48.896 565.104,49.42 566.504,49.985 C567.904,50.551 569.28,51.203 570.625,51.938 C571.969,52.674 573.17,53.594 574.231,54.699 C575.293,55.802 576.142,57.133 576.78,58.689 C577.416,60.247 577.733,62.116 577.733,64.294 C577.733,67.409 577.198,70.339 576.123,73.084 C575.045,75.83 573.505,78.229 571.494,80.281 C569.483,82.332 567.044,83.961 564.169,85.162 C561.296,86.365 558.06,86.969 554.466,86.969 C552.683,86.969 550.895,86.77 549.098,86.373 C547.296,85.977 545.573,85.418 543.916,84.695 C542.259,83.975 540.723,83.119 539.308,82.127 C537.895,81.137 536.689,80.033 535.697,78.815 L540.626,72.362 C541.022,71.881 541.51,71.485 542.089,71.173 C542.672,70.861 543.259,70.706 543.851,70.706 C544.643,70.706 545.417,70.982 546.165,71.534 C546.913,72.087 547.744,72.695 548.649,73.36 C549.554,74.025 550.611,74.633 551.813,75.186 C553.018,75.738 554.496,76.014 556.25,76.014 C558.825,76.014 560.813,75.313 562.214,73.912 C563.616,72.51 564.316,70.437 564.316,67.691 C564.316,66.417 563.998,65.371 563.363,64.549 C562.724,63.729 561.888,63.036 560.856,62.469 C559.821,61.903 558.643,61.401 557.312,60.962 C555.979,60.523 554.623,60.048 553.235,59.539 C551.847,59.03 550.489,58.428 549.159,57.734 C547.826,57.041 546.647,56.135 545.612,55.016 C544.581,53.899 543.746,52.527 543.106,50.898 C542.471,49.272 542.154,47.268 542.154,44.89 C542.154,42.145 542.672,39.505 543.702,36.971 C544.737,34.438 546.212,32.195 548.141,30.242 C550.063,28.288 552.399,26.731 555.146,25.571 C557.891,24.411 560.979,23.83 564.403,23.83 C566.156,23.83 567.861,24.014 569.519,24.383 C571.178,24.751 572.726,25.26 574.17,25.911 C575.609,26.562 576.928,27.333 578.116,28.223 C579.304,29.116 580.309,30.087 581.132,31.133 L576.973,36.823" id="Fill-35" fill="#1B5C97"></path>
            <path d="M637.48,25.145 L629.919,86.289 L625.081,86.289 C624.316,86.289 623.694,86.154 623.212,85.885 C622.731,85.617 622.279,85.17 621.853,84.547 L596.928,40.559 C596.872,41.211 596.823,41.826 596.78,42.407 C596.737,42.987 596.689,43.532 596.632,44.041 L591.451,86.289 L583.046,86.289 L590.56,25.145 L595.527,25.145 C596.376,25.145 596.993,25.231 597.377,25.4 C597.76,25.571 598.147,26.008 598.542,26.717 L623.555,70.706 C623.637,69.149 623.764,67.762 623.933,66.545 L629.032,25.145 L637.48,25.145" id="Fill-36" fill="#9EA0A0"></path>
            <path d="M675.609,63.446 L670.768,40.559 C670.625,39.682 670.45,38.677 670.237,37.545 C670.023,36.413 669.82,35.167 669.623,33.807 C669.141,35.167 668.658,36.419 668.18,37.566 C667.696,38.712 667.257,39.738 666.861,40.644 L656.415,63.446 L675.609,63.446 Z M690.299,86.289 L682.91,86.289 C682.062,86.289 681.405,86.084 680.935,85.674 C680.47,85.264 680.14,84.719 679.938,84.039 L677.051,70.324 L653.231,70.324 L646.947,84.039 C646.666,84.633 646.217,85.156 645.608,85.61 C644.999,86.063 644.298,86.289 643.507,86.289 L636.036,86.289 L665.8,25.145 L675.523,25.145 L690.299,86.289 Z" id="Fill-37" fill="#9EA0A0"></path>
            <polyline id="Fill-38" fill="#9EA0A0" points="735.306 33.128 717.981 33.128 711.442 86.289 701.933 86.289 708.428 33.128 691.02 33.128 691.952 25.145 736.324 25.145 735.306 33.128"></polyline>
            <polyline id="Fill-39" fill="#9EA0A0" points="745.111 86.289 735.519 86.289 742.994 25.145 752.587 25.145 745.111 86.289"></polyline>
            <path d="M805.15,51.726 C805.15,48.811 804.785,46.172 804.046,43.807 C803.311,41.444 802.249,39.421 800.866,37.735 C799.479,36.051 797.786,34.757 795.788,33.85 C793.796,32.944 791.552,32.492 789.059,32.492 C785.86,32.492 782.937,33.135 780.292,34.424 C777.646,35.713 775.38,37.545 773.5,39.922 C771.617,42.3 770.15,45.167 769.102,48.521 C768.058,51.876 767.53,55.604 767.53,59.709 C767.53,62.625 767.9,65.264 768.636,67.628 C769.371,69.991 770.424,72.016 771.8,73.7 C773.174,75.383 774.85,76.679 776.833,77.585 C778.813,78.49 781.062,78.944 783.581,78.944 C786.81,78.944 789.746,78.299 792.392,77.011 C795.04,75.723 797.312,73.898 799.208,71.534 C801.104,69.171 802.567,66.311 803.603,62.958 C804.633,59.602 805.15,55.859 805.15,51.726 Z M815.001,51.514 C815.001,54.911 814.636,58.152 813.9,61.238 C813.161,64.324 812.108,67.175 810.738,69.794 C809.362,72.411 807.701,74.776 805.748,76.883 C803.793,78.992 801.614,80.791 799.208,82.276 C796.803,83.762 794.196,84.908 791.396,85.715 C788.593,86.522 785.635,86.926 782.52,86.926 C778.7,86.926 775.254,86.246 772.182,84.889 C769.11,83.529 766.504,81.654 764.368,79.262 C762.232,76.87 760.592,74.032 759.443,70.749 C758.3,67.465 757.725,63.884 757.725,60.006 C757.725,56.582 758.099,53.327 758.848,50.241 C759.6,47.155 760.653,44.296 762.015,41.663 C763.372,39.031 765.025,36.653 766.979,34.53 C768.932,32.407 771.112,30.602 773.517,29.116 C775.924,27.63 778.529,26.483 781.331,25.676 C784.134,24.87 787.091,24.467 790.206,24.467 C794.026,24.467 797.468,25.145 800.521,26.505 C803.581,27.864 806.188,29.753 808.336,32.174 C810.489,34.592 812.139,37.453 813.282,40.751 C814.431,44.049 815.001,47.636 815.001,51.514 Z" id="Fill-40" fill="#9EA0A0"></path>
            <path d="M874.618,25.145 L867.057,86.289 L862.218,86.289 C861.454,86.289 860.831,86.154 860.349,85.885 C859.869,85.617 859.417,85.17 858.99,84.547 L834.065,40.559 C834.01,41.211 833.961,41.826 833.917,42.407 C833.874,42.987 833.827,43.532 833.77,44.041 L828.588,86.289 L820.183,86.289 L827.696,25.145 L832.665,25.145 C833.513,25.145 834.131,25.231 834.515,25.4 C834.893,25.571 835.284,26.008 835.68,26.717 L860.688,70.706 C860.774,69.149 860.901,67.762 861.07,66.545 L866.165,25.145 L874.618,25.145" id="Fill-41" fill="#9EA0A0"></path>
            <path d="M912.747,63.446 L907.904,40.559 C907.763,39.682 907.588,38.677 907.374,37.545 C907.161,36.413 906.957,35.167 906.761,33.807 C906.278,35.167 905.795,36.419 905.316,37.566 C904.834,38.712 904.395,39.738 903.998,40.644 L893.552,63.446 L912.747,63.446 Z M927.436,86.289 L920.048,86.289 C919.199,86.289 918.542,86.084 918.072,85.674 C917.607,85.264 917.276,84.719 917.076,84.039 L914.188,70.324 L890.368,70.324 L884.085,84.039 C883.803,84.633 883.354,85.156 882.75,85.61 C882.14,86.063 881.439,86.289 880.645,86.289 L873.174,86.289 L902.937,25.145 L912.66,25.145 L927.436,86.289 Z" id="Fill-42" fill="#9EA0A0"></path>
            <polyline id="Fill-43" fill="#9EA0A0" points="967.135 78.264 966.161 86.289 933.466 86.289 940.979 25.145 950.533 25.145 943.994 78.264 967.135 78.264"></polyline>
            <path d="M971.042,28.341 L975.088,28.341 L973.636,40.412 L976.598,40.412 L978.077,28.341 L982.123,28.341 L982.445,25.848 L971.386,25.848 L971.042,28.341 Z M997.507,25.848 C997.242,25.848 997.045,25.878 996.911,25.933 C996.78,25.991 996.624,26.128 996.441,26.34 L991.777,33.922 C991.646,34.135 991.524,34.34 991.42,34.539 C991.312,34.735 991.217,34.951 991.133,35.18 C991.051,34.718 990.946,34.301 990.816,33.922 L988.001,26.34 C987.871,26.128 987.744,25.991 987.631,25.933 C987.514,25.878 987.327,25.848 987.061,25.848 L984.542,25.848 L982.767,40.412 L985.382,40.412 L986.495,31.279 L986.543,29.576 L989.58,37.846 C989.646,38.059 989.759,38.225 989.923,38.34 C990.089,38.455 990.289,38.512 990.521,38.512 L990.938,38.512 C991.416,38.512 991.794,38.29 992.073,37.846 L997.159,29.478 L996.741,31.279 L995.628,40.412 L998.246,40.412 L1000,25.848 L997.507,25.848 Z" id="Fill-44" fill="#9EA0A0"></path>
        </g>
    </g>
</svg>