<svg width="8" height="11" viewBox="0 0 8 11" fill="none" xmlns="http://www.w3.org/2000/svg">
<path d="M6.4293 5.05805e-07H1.5694C1.15317 5.05805e-07 0.753985 0.152746 0.459666 0.424635C0.165347 0.696524 0 1.06528 0 1.44979V9.73294C0.000344621 9.82192 0.0387606 9.90716 0.10687 9.97008C0.174979 10.033 0.267256 10.0685 0.363577 10.0688C0.440785 10.0688 0.515959 10.0459 0.578061 10.0036L2.32532 8.82078L3.76394 9.98424C3.83003 10.0386 3.91544 10.0686 4.00392 10.0686C4.09241 10.0686 4.17781 10.0386 4.24391 9.98424L5.67468 8.82078L7.42063 10.0036C7.4748 10.0405 7.53898 10.0628 7.60605 10.0679C7.67311 10.0731 7.74042 10.061 7.80048 10.033C7.86054 10.0049 7.91099 9.96203 7.94622 9.90905C7.98145 9.85608 8.00006 9.79511 8 9.73294V1.44738C7.99931 1.06308 7.83348 0.694754 7.53895 0.423353C7.24442 0.151952 6.8453 -0.000320278 6.4293 5.05805e-07ZM3.99935 6.0408H2.18277C2.13328 6.04355 2.0837 6.03691 2.03709 6.02131C1.99047 6.0057 1.94781 5.98145 1.91171 5.95005C1.87562 5.91864 1.84685 5.88075 1.8272 5.83871C1.80754 5.79666 1.7974 5.75134 1.7974 5.70554C1.7974 5.65973 1.80754 5.61441 1.8272 5.57237C1.84685 5.53032 1.87562 5.49243 1.91171 5.46103C1.94781 5.42962 1.99047 5.40538 2.03709 5.38977C2.0837 5.37416 2.13328 5.36753 2.18277 5.37027H3.99935C4.04884 5.36753 4.09842 5.37416 4.14503 5.38977C4.19164 5.40538 4.23431 5.42962 4.2704 5.46103C4.3065 5.49243 4.33526 5.53032 4.35492 5.57237C4.37458 5.61441 4.38472 5.65973 4.38472 5.70554C4.38472 5.75134 4.37458 5.79666 4.35492 5.83871C4.33526 5.88075 4.3065 5.91864 4.2704 5.95005C4.23431 5.98145 4.19164 6.0057 4.14503 6.02131C4.09842 6.03691 4.04884 6.04355 3.99935 6.0408ZM5.81592 4.36267H2.18277C2.13328 4.36541 2.0837 4.35878 2.03709 4.34317C1.99047 4.32756 1.94781 4.30331 1.91171 4.27191C1.87562 4.24051 1.84685 4.20262 1.8272 4.16057C1.80754 4.11852 1.7974 4.0732 1.7974 4.0274C1.7974 3.9816 1.80754 3.93628 1.8272 3.89423C1.84685 3.85218 1.87562 3.81429 1.91171 3.78289C1.94781 3.75149 1.99047 3.72724 2.03709 3.71163C2.0837 3.69603 2.13328 3.68939 2.18277 3.69214H5.81592C5.86542 3.68939 5.91499 3.69603 5.96161 3.71163C6.00822 3.72724 6.05089 3.75149 6.08698 3.78289C6.12308 3.81429 6.15184 3.85218 6.1715 3.89423C6.19116 3.93628 6.2013 3.9816 6.2013 4.0274C6.2013 4.0732 6.19116 4.11852 6.1715 4.16057C6.15184 4.20262 6.12308 4.24051 6.08698 4.27191C6.05089 4.30331 6.00822 4.32756 5.96161 4.34317C5.91499 4.35878 5.86542 4.36541 5.81592 4.36267ZM5.81592 2.68574H2.18277C2.08634 2.68574 1.99387 2.65035 1.92568 2.58737C1.8575 2.52438 1.81919 2.43895 1.81919 2.34987C1.81919 2.26079 1.8575 2.17536 1.92568 2.11238C1.99387 2.04939 2.08634 2.014 2.18277 2.014H5.81592C5.91235 2.014 6.00483 2.04939 6.07301 2.11238C6.1412 2.17536 6.1795 2.26079 6.1795 2.34987C6.1795 2.43895 6.1412 2.52438 6.07301 2.58737C6.00483 2.65035 5.91235 2.68574 5.81592 2.68574Z" fill="#224797"/>
</svg>
