<svg width="21" height="21" viewBox="0 0 21 21" fill="none" xmlns="http://www.w3.org/2000/svg">
<path d="M10.5 0C8.4233 0 6.39323 0.615814 4.66652 1.76957C2.9398 2.92332 1.59399 4.5632 0.799269 6.48182C0.00454948 8.40045 -0.203385 10.5116 0.201759 12.5484C0.606904 14.5852 1.60693 16.4562 3.07538 17.9246C4.54383 19.3931 6.41475 20.3931 8.45156 20.7982C10.4884 21.2034 12.5996 20.9954 14.5182 20.2007C16.4368 19.406 18.0767 18.0602 19.2304 16.3335C20.3842 14.6068 21 12.5767 21 10.5C20.9977 7.71594 19.8907 5.04659 17.922 3.07796C15.9534 1.10934 13.2841 0.00234151 10.5 0ZM16.2695 14.3905C16.0827 14.8302 15.8209 15.2341 15.4958 15.5842C14.2358 16.8442 10.8537 15.7168 8.06842 12.9316C5.28316 10.1463 4.15579 6.78631 5.41579 5.50421C5.7697 5.18406 6.17272 4.92284 6.60948 4.73053C6.7845 4.65648 6.9791 4.64234 7.16299 4.69031C7.34688 4.73829 7.50977 4.84568 7.62632 4.99579L9.01895 6.76421C9.15792 6.93907 9.22401 7.16084 9.20341 7.38325C9.18282 7.60566 9.07714 7.81152 8.90842 7.95789C8.55474 8.26737 8.31158 8.48842 8.24527 8.55474C7.71474 9.08526 8.48842 10.2126 9.66 11.3842C10.8316 12.5558 11.9368 13.3516 12.4895 12.7989C12.5558 12.7326 12.7768 12.4895 13.0863 12.1358C13.2324 11.9666 13.4383 11.8606 13.6609 11.8399C13.8835 11.8193 14.1054 11.8858 14.28 12.0253L16.0484 13.4179C16.1923 13.5292 16.293 13.6871 16.3334 13.8646C16.3737 14.042 16.3511 14.2279 16.2695 14.3905Z" fill="white"/>
</svg>
