<svg width="10" height="9" viewBox="0 0 10 9" fill="none" xmlns="http://www.w3.org/2000/svg">
<path d="M6.58909 6.11766C6.53296 6.0551 6.46221 6.005 6.38211 5.9711C6.30201 5.9372 6.21463 5.92038 6.12648 5.92188H5.55919V4.47838C5.56041 4.43958 5.55294 4.40097 5.53724 4.36495C5.485 4.27531 5.40732 4.2004 5.31248 4.14817C5.21763 4.09594 5.10918 4.06836 4.99865 4.06836C4.88813 4.06836 4.77967 4.09594 4.68483 4.14817C4.58999 4.2004 4.51231 4.27531 4.46007 4.36495C4.44513 4.40117 4.43769 4.43964 4.43812 4.47838V5.92188H3.87083C3.78249 5.91921 3.6947 5.93551 3.6144 5.96949C3.5341 6.00347 3.4635 6.05421 3.40821 6.11766C3.38809 6.14387 3.37111 6.172 3.35756 6.20157C3.33524 6.25284 3.32816 6.30866 3.33706 6.36328C3.34597 6.4179 3.37053 6.46935 3.40821 6.51234L4.52929 7.94186C4.54617 7.95947 4.56474 7.97656 4.585 7.99313C4.70957 8.09392 4.8725 8.14513 5.03803 8.13551C5.20357 8.1259 5.3582 8.05626 5.46802 7.94186L6.6026 6.49991C6.63753 6.45546 6.65905 6.40329 6.66498 6.34871C6.67092 6.29413 6.66104 6.23907 6.63637 6.18914C6.62369 6.1637 6.60783 6.13971 6.58909 6.11766Z" fill="#7FA2ED"/>
<path d="M9.42843 2.9059C9.25113 2.72151 9.03637 2.57393 8.79739 2.47227C8.5584 2.37062 8.30027 2.31703 8.03889 2.31482C7.99696 2.31503 7.95541 2.30729 7.91661 2.29204C7.87781 2.27679 7.84253 2.25432 7.81281 2.22594C7.78308 2.19755 7.75949 2.16381 7.7434 2.12664C7.7273 2.08947 7.71901 2.04962 7.71902 2.00937V1.74354C7.71992 1.51544 7.67402 1.28941 7.58394 1.07834C7.49385 0.867273 7.36135 0.675307 7.19399 0.513404C7.02663 0.351501 6.8277 0.222831 6.60855 0.134741C6.38939 0.0466506 6.15431 0.000865646 5.91673 0H5.18068C4.70284 0.00149432 4.24467 0.182899 3.90464 0.505231C3.73583 0.665461 3.6018 0.856238 3.51029 1.06652C3.41878 1.27681 3.37161 1.50243 3.37152 1.73033C3.3707 1.75038 3.36216 1.76943 3.34754 1.78377C3.33292 1.79811 3.31327 1.80672 3.29241 1.80793H2.50133C2.47554 1.80793 2.44974 1.80793 2.42394 1.80793C2.09735 1.81586 1.77558 1.88548 1.47702 2.01284C1.17847 2.1402 0.908973 2.32279 0.683946 2.55018C0.458919 2.77757 0.282766 3.0453 0.165555 3.33808C0.0483438 3.63086 -0.00762904 3.94294 0.000834691 4.25649C0.0206093 4.89154 0.29896 5.49383 0.77612 5.93403C1.25328 6.37424 1.89121 6.61727 2.55292 6.61093H2.577C2.6001 6.43177 2.67055 6.26126 2.78165 6.11561C2.88764 5.97697 3.02278 5.86124 3.17831 5.77591C3.33383 5.69059 3.50629 5.63757 3.68451 5.62028V4.77823C3.68375 4.6518 3.70766 4.52636 3.75502 4.40839C3.86083 4.17706 4.03451 3.98031 4.25485 3.84216C4.47518 3.70401 4.73265 3.63045 4.99581 3.63045C5.25897 3.63045 5.51644 3.70401 5.73678 3.84216C5.95712 3.98031 6.13079 4.17706 6.2366 4.40839C6.28341 4.52646 6.30674 4.65191 6.30539 4.77823V5.61698C6.4843 5.63525 6.65738 5.68865 6.81388 5.77386C6.97039 5.85907 7.10697 5.97427 7.21513 6.11231C7.32603 6.25806 7.39646 6.42852 7.41978 6.60763H8.08532C8.60885 6.57709 9.09995 6.35394 9.45646 5.9846C9.81297 5.61526 10.0074 5.12817 9.99939 4.62468V4.35721C10.0127 3.82059 9.80794 3.30007 9.42843 2.9059Z" fill="#7FA2ED"/>
</svg>
