<svg width="10" height="10" viewBox="0 0 10 10" fill="none" xmlns="http://www.w3.org/2000/svg">
<path d="M4.65795 0.769671H4.63928C4.03281 0.761179 3.43071 0.874389 2.86801 1.10272C2.3053 1.33105 1.79321 1.66994 1.36152 2.09969C0.929833 2.52943 0.587155 3.04146 0.353417 3.60599C0.119679 4.17052 -0.000454503 4.7763 1.29213e-06 5.38808C0.000457087 5.99986 0.121494 6.60545 0.356072 7.16963C0.590651 7.7338 0.934091 8.24531 1.36642 8.6744C1.79875 9.1035 2.31134 9.44161 2.87439 9.66909C3.43744 9.89656 4.0397 10.0089 4.64616 9.99945C7.17275 9.99945 9.22488 8.01775 9.23077 5.37217H4.65795V0.769671Z" fill="#7FA2ED"/>
<path d="M5.38463 0V4.61538H10C9.99803 2.0652 8.03746 0.0149076 5.38463 0Z" fill="#7FA2ED"/>
</svg>
