<svg width="10" height="10" viewBox="0 0 10 10" fill="none" xmlns="http://www.w3.org/2000/svg">
<path d="M3.334 0H1.248C0.917416 0.00131656 0.600747 0.133224 0.366986 0.366984C0.133225 0.600744 0.00131656 0.917412 0 1.248V3.33099C0.00104525 3.66212 0.132711 3.97946 0.366388 4.21407C0.600065 4.44869 0.916878 4.58162 1.248 4.58399H3.334C3.6653 4.58188 3.98237 4.44906 4.21626 4.21442C4.45015 3.97978 4.58195 3.66229 4.583 3.33099V1.248C4.58142 0.917321 4.44929 0.600654 4.21537 0.366922C3.98145 0.13319 3.66468 0.00131472 3.334 0Z" fill="#7FA2ED"/>
<path d="M8.75099 0H6.66499C6.33441 0.00131656 6.01774 0.133224 5.78398 0.366984C5.55022 0.600744 5.41831 0.917412 5.41699 1.248V3.33099C5.41804 3.66212 5.5497 3.97946 5.78338 4.21407C6.01705 4.44869 6.33387 4.58162 6.66499 4.58399H8.75099C9.08229 4.58188 9.39936 4.44906 9.63325 4.21442C9.86714 3.97978 9.99894 3.66229 9.99999 3.33099V1.248C9.99841 0.917321 9.86628 0.600654 9.63236 0.366922C9.39844 0.13319 9.08167 0.00131472 8.75099 0Z" fill="#7FA2ED"/>
<path d="M3.335 5.41702H1.248C0.558749 5.41702 0 5.97577 0 6.66502V8.75201C0 9.44126 0.558749 10 1.248 10H3.335C4.02425 10 4.583 9.44126 4.583 8.75201V6.66502C4.583 5.97577 4.02425 5.41702 3.335 5.41702Z" fill="#7FA2ED"/>
<path d="M8.75199 5.41702H6.66499C5.97574 5.41702 5.41699 5.97577 5.41699 6.66502V8.75201C5.41699 9.44126 5.97574 10 6.66499 10H8.75199C9.44124 10 9.99999 9.44126 9.99999 8.75201V6.66502C9.99999 5.97577 9.44124 5.41702 8.75199 5.41702Z" fill="#7FA2ED"/>
</svg>
