<svg id="Layer_1" data-name="Layer 1" xmlns="http://www.w3.org/2000/svg" viewBox="0 0 10.04 8.72"><defs><style>.cls-1{fill:#85a1d3;}</style></defs><path class="cls-1" d="M363,456.47h0l-1.66-4.19a.22.22,0,0,0-.07-.09.2.2,0,0,0-.11,0,.2.2,0,0,0-.19.09l-.72,1.14-.15-.08a.25.25,0,0,0-.15,0,.25.25,0,0,0-.13.09.2.2,0,0,0,0,.15.18.18,0,0,0,.1.11l.32.17a.19.19,0,0,0,.15,0,.21.21,0,0,0,.13-.09l.6-.95,1.4,3.56-4.08.67.6-1a.17.17,0,0,0,0-.14.23.23,0,0,0-.1-.12l-2.74-1.45.2-.32a.17.17,0,0,0,0-.14.19.19,0,0,0-.09-.11.26.26,0,0,0-.15,0,.2.2,0,0,0-.12.08l-.31.49a.14.14,0,0,0,0,.14.18.18,0,0,0,.09.12l2.75,1.45-.72,1.14a.17.17,0,0,0,0,.1.14.14,0,0,0,0,.1.15.15,0,0,0,.06.05.22.22,0,0,0,.14,0l4.75-.79h.09v0Z" transform="translate(-352.98 -448.64)"/><path class="cls-1" d="M358.74,454.05l1.47-2.33a.14.14,0,0,0,0-.14.22.22,0,0,0-.09-.12l-2.64-1.39.72-1.14a.12.12,0,0,0,0-.1.2.2,0,0,0,0-.11l-.1-.07H358l-4.84.74a.11.11,0,0,0-.08,0,.09.09,0,0,0-.06.06.11.11,0,0,0,0,.08.25.25,0,0,0,0,.08l1.73,4.2a.22.22,0,0,0,.09.1l.09,0,.11,0a.24.24,0,0,0,.09-.08l.72-1.14,2.64,1.4.08,0h.08l.07,0Z" transform="translate(-352.98 -448.64)"/></svg>