<svg width="10" height="10" viewBox="0 0 10 10" fill="none" xmlns="http://www.w3.org/2000/svg">
<path d="M8.26726 6.59262L8.19136 6.66415C8.13116 6.72188 8.07619 6.77961 8.01207 6.83735L7.86156 6.98042C7.82623 7.01556 7.79482 7.04944 7.75556 7.08208C7.58935 7.23895 7.431 7.39583 7.26741 7.55145L7.0554 7.75477L7.03839 7.77108C7.02399 7.78489 7.0109 7.79869 6.99651 7.81124C6.95094 7.85139 6.89314 7.87646 6.83161 7.88278H6.80936H6.79235C6.44554 7.92294 6.09873 7.95933 5.74538 7.99573L5.5975 8.01204C5.52808 8.01204 5.4615 7.9856 5.41242 7.93853C5.36333 7.89145 5.33575 7.82761 5.33575 7.76104C5.33575 7.7397 5.33575 7.71586 5.3423 7.69452C5.37894 7.38704 5.41428 7.08207 5.45092 6.77585C5.45092 6.71686 5.46139 6.65035 5.47317 6.58885C5.47697 6.52904 5.50297 6.4725 5.54646 6.42946C5.57394 6.39934 5.60404 6.37299 5.63283 6.34412L5.64723 6.33157L5.82521 6.16089L6.98735 5.06902C7.24909 4.82555 7.49774 4.57957 7.75163 4.33609L7.82885 4.26205L7.85633 4.23695L8.00552 4.08509C8.09059 4.00226 8.17042 3.92194 8.25941 3.84036V1.72565C8.25941 1.55873 8.26988 1.38805 8.25941 1.22364C8.23978 0.926205 8.06049 0.656375 7.72546 0.656375H6.46517V1.01155C6.46517 1.05673 6.46517 1.10316 6.46517 1.14709C6.46452 1.15837 6.46452 1.16969 6.46517 1.18097V0.107932C6.46453 0.0983199 6.46453 0.0886781 6.46517 0.0790662C6.46323 0.0716509 6.46323 0.0638913 6.46517 0.056476C6.46517 0.056476 6.46517 0.056476 6.45732 0.0502009L6.43507 0.0200804L6.41544 0.0100401C6.39581 0.0100401 6.36178 0 6.38272 0H6.35655C6.08565 0 5.81343 0 5.54122 0H1.95012H1.92657H1.9462C1.93965 0 1.88861 0.0251005 1.88861 0.0200804L1.87814 0.0276105L1.86113 0.0414156C1.85766 0.0508092 1.85281 0.0596827 1.84673 0.0677711C1.84673 0.0853413 1.84019 0.104167 1.84019 0.0991465C1.83962 0.102892 1.83962 0.106697 1.84019 0.110442C1.84019 0.119227 1.84019 0.129267 1.84019 0.138052V1.08936C1.84019 1.08057 1.84019 1.07179 1.84019 1.06426V0.656375H0.93849C0.778245 0.643343 0.616938 0.649244 0.458194 0.673945C0.325016 0.714985 0.209057 0.795871 0.127327 0.90474C0.0455982 1.01361 0.00240054 1.14473 0.00407154 1.27886C0.00407154 1.43825 0.00407154 1.59764 0.00407154 1.75703V9.08509C0.00407154 9.21059 -0.00508943 9.3273 0.00407154 9.44402C0.0138324 9.59207 0.0810405 9.73125 0.192461 9.83415C0.303882 9.93705 0.45144 9.99621 0.606078 10H7.73462C7.86546 10.0005 7.99177 9.95406 8.08866 9.86974C8.18555 9.78542 8.246 9.66936 8.2581 9.54442C8.26993 9.43353 8.27299 9.32193 8.26726 9.21059V6.59262ZM1.87945 1.32154H1.88861H1.89516L1.92002 1.33032H1.94358H6.36833H6.38272L6.40759 1.32279C6.40759 1.32279 6.40759 1.32279 6.39974 1.32279H6.41413H6.40759L6.42591 1.31401C6.38437 1.41286 6.31574 1.49911 6.22728 1.56362C6.13881 1.62813 6.0338 1.66851 5.92336 1.68047C5.85013 1.68423 5.77674 1.68423 5.7035 1.68047H2.65683C2.58223 1.68047 2.50763 1.68047 2.43304 1.68047C2.33404 1.68042 2.2365 1.6576 2.1486 1.61392C2.06071 1.57025 1.98501 1.50699 1.92787 1.42947C1.90332 1.39347 1.88354 1.35469 1.86898 1.31401L1.87553 1.32154H1.87945ZM1.64781 3.53665H1.65697C1.85851 3.53665 2.06005 3.53665 2.26029 3.53665H6.6196C6.65778 3.52874 6.69732 3.52914 6.73532 3.5378C6.77332 3.54646 6.80882 3.56316 6.83921 3.58669C6.86961 3.61022 6.89412 3.63997 6.91097 3.67377C6.92781 3.70756 6.93655 3.74454 6.93655 3.782C6.93655 3.81946 6.92781 3.85644 6.91097 3.89024C6.89412 3.92403 6.86961 3.95378 6.83921 3.97731C6.80882 4.00084 6.77332 4.01755 6.73532 4.02621C6.69732 4.03486 6.65778 4.03526 6.6196 4.02736H6.61044C6.4102 4.02736 6.20866 4.02736 6.00712 4.02736H1.64781C1.58933 4.01526 1.53693 3.98431 1.49936 3.93966C1.46178 3.89502 1.44128 3.83937 1.44128 3.782C1.44128 3.72463 1.46178 3.66898 1.49936 3.62434C1.53693 3.5797 1.58933 3.54875 1.64781 3.53665ZM4.17885 7.90035H1.64781C1.58933 7.88825 1.53693 7.8573 1.49936 7.81265C1.46178 7.76801 1.44128 7.71237 1.44128 7.65499C1.44128 7.59762 1.46178 7.54198 1.49936 7.49733C1.53693 7.45269 1.58933 7.42174 1.64781 7.40964H4.17885C4.24827 7.40964 4.31485 7.43608 4.36393 7.48315C4.41302 7.53023 4.4406 7.59407 4.4406 7.66064C4.43756 7.72523 4.40865 7.78621 4.35989 7.83087C4.31113 7.87552 4.24628 7.90041 4.17885 7.90035ZM4.57147 5.96385H1.64781C1.58933 5.95175 1.53693 5.9208 1.49936 5.87616C1.46178 5.83151 1.44128 5.77587 1.44128 5.7185C1.44128 5.66112 1.46178 5.60548 1.49936 5.56084C1.53693 5.51619 1.58933 5.48524 1.64781 5.47314H4.57539C4.64481 5.47314 4.71139 5.49959 4.76047 5.54666C4.80956 5.59373 4.83714 5.65757 4.83714 5.72414C4.8341 5.78874 4.80519 5.84972 4.75643 5.89437C4.70767 5.93903 4.64282 5.96392 4.57539 5.96385H4.57147Z" fill="#7FA2ED"/>
<path d="M9.96858 4.20937L9.85865 4.10395L9.54587 3.81404L9.29852 3.5781L9.28282 3.56555C8.97135 3.86801 8.65595 4.1667 8.34186 4.46916L8.16518 4.63733L7.81706 4.97116L6.62483 6.11447L5.98225 6.72566V6.75578L5.89587 7.49624L6.6955 7.40839L6.78187 7.32556L7.44539 6.68927L7.838 6.31277L7.89166 6.26131L8.59575 5.58612L9.5511 4.67121L9.99999 4.24075C9.99031 4.22959 9.97981 4.21911 9.96858 4.20937Z" fill="#7FA2ED"/>
</svg>
