<svg width="10" height="11" viewBox="0 0 10 11" fill="none" xmlns="http://www.w3.org/2000/svg">
<path fill-rule="evenodd" clip-rule="evenodd" d="M9.90653 9.70472C10.3086 8.43484 9.31919 7.36249 8.72733 7.10852C8.50006 7.01538 8.26594 6.93991 8.02705 6.88276C7.99316 6.39625 7.51087 5.12524 7.75145 3.24243C8.30377 -1.08081 1.69509 -1.08081 2.24854 3.24243C2.48913 5.12411 2.00683 6.39513 1.97408 6.87825C1.73519 6.93539 1.50106 7.01087 1.27379 7.104C0.680804 7.36249 -0.308634 8.43484 0.0934662 9.70472C0.646919 11.4318 9.35308 11.4318 9.90653 9.70472ZM7.36403 8.34115H8.01801V8.86716H8.54549V9.52073H8.01801V10.0479H7.36403V9.52073H6.83769V8.86716H7.36403V8.34115ZM5 8.83104L6.88513 6.89744L6.36669 6.15357C6.20534 6.36253 5.99819 6.53172 5.76116 6.64814C5.52413 6.76455 5.26354 6.82509 4.99943 6.82509C4.73533 6.82509 4.47474 6.76455 4.23771 6.64814C4.00068 6.53172 3.79352 6.36253 3.63218 6.15357L3.11487 6.89744L5 8.83104ZM6.84672 4.72904C6.56887 5.71898 5.84712 6.42222 5 6.42222C4.15287 6.42222 3.43 5.7156 3.15327 4.72904C2.82346 4.63309 2.645 4.06419 2.59756 3.8373C2.55012 3.61042 2.65855 3.26162 3.04032 3.60251C3.06524 3.20788 3.16329 2.8213 3.32947 2.46244C3.82193 2.17122 4.02411 2.21072 4.47817 2.43535C4.9887 2.68707 6.61631 3.45126 6.95064 3.61042C7.33918 3.25711 7.44987 3.60364 7.40244 3.83617C7.355 4.0687 7.17654 4.62632 6.84672 4.72678V4.72904Z" fill="#7FA2ED"/>
</svg>
