<svg width="10" height="10" viewBox="0 0 10 10" fill="none" xmlns="http://www.w3.org/2000/svg">
<path d="M2.85714 0.326396V1.96152C2.85714 2.00447 2.84788 2.047 2.82989 2.08667C2.8119 2.12633 2.78553 2.16236 2.7523 2.19269C2.71907 2.22301 2.67963 2.24703 2.63623 2.26337C2.59284 2.27971 2.54635 2.28805 2.49943 2.28791H0.357714C0.284359 2.28772 0.212844 2.26688 0.15286 2.22823C0.0928755 2.18958 0.0473226 2.13498 0.0223742 2.07184C-0.00257424 2.00869 -0.00571187 1.94005 0.0133865 1.87522C0.0324848 1.81039 0.0728957 1.7525 0.129143 1.7094L2.27086 0.0784607C2.30694 0.0509008 2.34861 0.0301206 2.39348 0.0173075C2.43834 0.00449439 2.48552 -0.000100388 2.53233 0.00378574C2.57914 0.00767188 2.62465 0.0199627 2.66626 0.0399559C2.70787 0.0599491 2.74478 0.0872527 2.77486 0.120306C2.82712 0.178424 2.85615 0.251128 2.85714 0.326396ZM10 4.24943V8.17247C10 8.43254 9.88721 8.68197 9.68642 8.86597C9.48563 9.04996 9.21326 9.15347 8.92914 9.15375H6.072C5.78769 9.15375 5.51502 9.05036 5.31398 8.86634C5.11294 8.68231 5 8.43272 5 8.17247V4.24943C5.0003 3.98936 5.11338 3.74004 5.31438 3.55624C5.51539 3.37244 5.78789 3.2692 6.072 3.2692H8.92914C9.21306 3.26947 9.48526 3.37284 9.68602 3.55661C9.88678 3.74038 9.9997 3.98954 10 4.24943ZM7.14286 7.19223H6.42857V7.84607H7.14286V7.19223ZM7.14286 5.88455H6.42857V6.53839H7.14286V5.88455ZM8.57143 7.19223H7.85714V7.84607H8.57143V7.19223ZM8.57143 5.88455H7.85714V6.53839H8.57143V5.88455ZM8.57143 4.57687H6.42857V5.23071H8.57143V4.57687ZM7.85714 0.980236V2.94175H6.072C5.69312 2.94175 5.32976 3.07953 5.06185 3.32476C4.79394 3.57 4.64343 3.90261 4.64343 4.24943V8.17247C4.642 8.28303 4.65738 8.39323 4.68914 8.49991H1.07086C0.786743 8.49963 0.514369 8.39612 0.313577 8.21213C0.112785 8.02813 -1.61457e-07 7.7787 0 7.51863V2.61536H2.49943C2.59333 2.61549 2.68633 2.59868 2.77312 2.56589C2.85992 2.53309 2.9388 2.48495 3.00524 2.42422C3.07169 2.36349 3.12441 2.29137 3.16038 2.21197C3.19634 2.13258 3.21486 2.04747 3.21486 1.96152V0H6.78514C7.06926 -1.47794e-07 7.34175 0.103241 7.54276 0.287041C7.74376 0.470841 7.85684 0.720165 7.85714 0.980236ZM3.928 5.55711H1.07086V6.21095H3.928V5.55711ZM3.928 3.92303H1.07086V4.57687H3.928V3.92303Z" fill="#7FA2ED"/>
</svg>
