<svg width="22" height="22" viewBox="0 0 22 22" fill="none" xmlns="http://www.w3.org/2000/svg">
<g clip-path="url(#clip0_61_92)">
<path d="M20.0758 17.2222C21.6377 14.9445 22.286 12.1627 21.8919 9.42918C21.4979 6.69565 20.0904 4.21023 17.9488 2.46634C15.8073 0.722451 13.0883 -0.152382 10.3316 0.015515C7.5749 0.183413 4.98216 1.38176 3.06806 3.37266C1.15397 5.36356 0.0584963 8.00143 -0.000872679 10.7626C-0.0602417 13.5237 0.920833 16.2062 2.74758 18.2776C4.57433 20.3489 7.11317 21.6576 9.86008 21.9438C12.607 22.2301 15.3611 21.4729 17.5756 19.8227L21.3642 21.0847L20.0758 17.2222ZM12.1027 16.1846C12.1021 16.2671 12.0696 16.3461 12.012 16.4052C11.9544 16.4642 11.8762 16.4987 11.7938 16.5014H10.2098C10.1255 16.5014 10.0446 16.4681 9.98479 16.4088C9.92496 16.3495 9.89099 16.2689 9.8903 16.1846V14.6217C9.8903 14.5369 9.92395 14.4557 9.98386 14.3958C10.0438 14.3359 10.125 14.3022 10.2098 14.3022H11.7938C11.8785 14.3022 11.9598 14.3359 12.0197 14.3958C12.0796 14.4557 12.1133 14.5369 12.1133 14.6217L12.1027 16.1846ZM14.125 9.32034C14.0208 9.60128 13.8806 9.86752 13.7079 10.1124C13.531 10.3421 13.3119 10.6061 13.0373 10.9044C12.8215 11.1342 12.6196 11.3766 12.4327 11.6304C12.2713 11.847 12.1448 12.0875 12.0578 12.3433C11.9569 12.6181 11.9051 12.9085 11.9047 13.2013H9.70285C9.70753 12.8268 9.77444 12.4556 9.90086 12.103C10.0064 11.7955 10.1587 11.5061 10.3523 11.245C10.5695 10.9545 10.8012 10.6751 11.0467 10.4081C11.3318 10.0886 11.4532 9.94605 11.5747 9.78236C11.7038 9.60308 11.8144 9.41112 11.9047 9.20946C11.9856 8.99518 12.0268 8.76792 12.0261 8.53887C12.0552 8.31942 12.0115 8.0965 11.9016 7.90431C11.7918 7.71212 11.6219 7.56129 11.4181 7.47496C11.2143 7.38863 10.9877 7.37157 10.7733 7.42641C10.5588 7.48125 10.3683 7.60494 10.2309 7.77852C10.1382 7.88913 10.0674 8.01635 10.0223 8.15341V8.59431C10.0035 8.60223 9.9833 8.6063 9.9629 8.6063C9.9425 8.6063 9.9223 8.60223 9.9035 8.59431H7.87854C7.83874 8.60483 7.79689 8.60483 7.75709 8.59431C7.73672 8.5742 7.72115 8.54974 7.71155 8.52277C7.70195 8.4958 7.69857 8.46701 7.70165 8.43855C7.71257 8.24864 7.74625 8.06072 7.80197 7.87884C7.86284 7.54152 7.98164 7.21728 8.15311 6.92049C8.39864 6.45006 8.78302 6.0666 9.25403 5.8222C9.80266 5.57741 10.402 5.46786 11.0018 5.50275C11.6123 5.48754 12.2193 5.59994 12.7839 5.83276C13.2371 6.03069 13.6205 6.35991 13.8848 6.77792C14.1093 7.15797 14.2472 7.58285 14.2887 8.02231C14.3303 8.46176 14.2744 8.90496 14.125 9.32034Z" fill="white"/>
</g>
<defs>
<clipPath id="clip0_61_92">
<rect width="22" height="22" fill="white"/>
</clipPath>
</defs>
</svg>
