<svg width="10" height="10" viewBox="0 0 10 10" fill="none" xmlns="http://www.w3.org/2000/svg">
<path fill-rule="evenodd" clip-rule="evenodd" d="M9.55861 6.34707H5.2642L4.91984 9.35507C4.91046 9.43598 4.9177 9.51804 4.94108 9.59583C4.96445 9.67362 5.00343 9.74536 5.05544 9.80631C5.10745 9.86727 5.17131 9.91605 5.24279 9.94944C5.31427 9.98283 5.39174 10.0001 5.4701 10H5.74701V9.03877C5.75073 8.99034 5.77186 8.94515 5.80618 8.9122C5.8405 8.87924 5.88549 8.86094 5.9322 8.86094C5.97891 8.86094 6.02391 8.87924 6.05823 8.9122C6.09255 8.94515 6.11367 8.99034 6.1174 9.03877V10H7.22621V9.03877C7.22993 8.99034 7.25106 8.94515 7.28538 8.9122C7.3197 8.87924 7.36469 8.86094 7.4114 8.86094C7.45811 8.86094 7.50311 8.87924 7.53743 8.9122C7.57175 8.94515 7.59287 8.99034 7.5966 9.03877V10H8.70541V9.03877C8.70913 8.99034 8.73026 8.94515 8.76458 8.9122C8.7989 8.87924 8.84389 8.86094 8.8906 8.86094C8.93731 8.86094 8.98231 8.87924 9.01663 8.9122C9.05095 8.94515 9.07207 8.99034 9.0758 9.03877V10H9.35152C9.42998 10.0002 9.50759 9.98313 9.57921 9.94982C9.65083 9.91651 9.71483 9.86775 9.76697 9.80678C9.81911 9.7458 9.85819 9.674 9.88164 9.59612C9.90508 9.51825 9.91235 9.43609 9.90296 9.35507L9.55861 6.34707ZM0.219537 2.88492L0.865651 9.48307C0.879717 9.62496 0.943898 9.75637 1.04577 9.85186C1.14764 9.94735 1.27995 10.0001 1.4171 10H4.7305C4.58783 9.80181 4.52385 9.55417 4.55181 9.3083L4.88907 6.33477C4.76464 6.30718 4.65306 6.23605 4.57295 6.13324C4.49284 6.03044 4.44904 5.90217 4.44886 5.76984V5.38461C4.44902 5.3086 4.4636 5.23337 4.49179 5.16324C4.51997 5.09311 4.56119 5.02946 4.61309 4.97594C4.66499 4.92242 4.72654 4.88009 4.7942 4.85137C4.86187 4.82266 4.93433 4.80813 5.00741 4.80861H6.67121V2.88492H0.219537ZM0.940202 5.01784L1.12481 7.13354C1.13223 7.18187 1.15701 7.22547 1.19415 7.25553C1.23128 7.28559 1.278 7.29988 1.32487 7.2955C1.37174 7.29113 1.41527 7.26842 1.44666 7.23196C1.47806 7.1955 1.49498 7.14801 1.49401 7.09908L1.30823 4.98338C1.30605 4.95825 1.29914 4.93381 1.28788 4.91146C1.27662 4.8891 1.26124 4.86927 1.24262 4.8531C1.22399 4.83693 1.20249 4.82473 1.17933 4.8172C1.15617 4.80968 1.13181 4.80697 1.10765 4.80923C1.08348 4.81149 1.05998 4.81868 1.03849 4.83039C1.017 4.8421 0.997932 4.8581 0.982384 4.87747C0.966835 4.89684 0.955107 4.91921 0.94787 4.94329C0.940632 4.96738 0.938027 4.99271 0.940202 5.01784ZM9.8154 5.19261H5.00741C4.95845 5.19261 4.91149 5.21284 4.87687 5.24885C4.84225 5.28486 4.8228 5.33369 4.8228 5.38461V5.76984C4.8228 5.82077 4.84225 5.8696 4.87687 5.90561C4.91149 5.94162 4.95845 5.96184 5.00741 5.96184H9.81421C9.83855 5.96201 9.86269 5.95716 9.88522 5.94758C9.90775 5.93801 9.92824 5.92389 9.94551 5.90605C9.96278 5.8882 9.97648 5.86698 9.98584 5.84361C9.99519 5.82023 10 5.79516 10 5.76984V5.38461C10 5.3593 9.99519 5.33423 9.98584 5.31085C9.97648 5.28748 9.96278 5.26626 9.94551 5.24841C9.92824 5.23057 9.90775 5.21645 9.88522 5.20687C9.86269 5.1973 9.83855 5.19245 9.81421 5.19261H9.8154ZM7.7812 4.23138H7.0416V4.80861H7.7812V4.23138ZM7.0416 0.385231V3.84615H7.7812V0.385231C7.7812 0.283274 7.74234 0.185475 7.67313 0.113266C7.60393 0.0410562 7.51002 0.00032574 7.41199 0C7.31376 0 7.21955 0.0405867 7.15009 0.112831C7.08063 0.185076 7.0416 0.283061 7.0416 0.385231ZM6.67121 2.11569H0.200603C0.175038 2.11356 0.149327 2.11697 0.125088 2.12568C0.100849 2.13439 0.0786068 2.14823 0.0597628 2.16633C0.0409188 2.18442 0.0258806 2.20638 0.0155952 2.23081C0.00530984 2.25525 0 2.28163 0 2.30831C0 2.33498 0.00530984 2.36137 0.0155952 2.3858C0.0258806 2.41024 0.0409188 2.43219 0.0597628 2.45029C0.0786068 2.46838 0.100849 2.48222 0.125088 2.49093C0.149327 2.49965 0.175038 2.50305 0.200603 2.50092H6.67121V2.11569ZM6.64399 1.73169C6.55393 1.24512 6.30397 0.806273 5.93695 0.490341C5.56993 0.174409 5.1087 0.00106088 4.63228 0H2.04901C1.59054 0.00033536 1.14852 0.177641 0.808557 0.497567C0.468598 0.817493 0.254909 1.25727 0.208887 1.73169H6.64399Z" fill="#224797"/>
</svg>
