<svg width="274" height="44" viewBox="0 0 274 44" fill="none" xmlns="http://www.w3.org/2000/svg">
<path d="M19.1669 31.011C19.0483 32.0388 18.6337 33.0078 17.9752 33.7961C17.3167 34.5845 16.4439 35.1568 15.4666 35.4412C14.5122 35.7724 13.5142 35.9552 12.5062 35.9836C10.9511 36.0334 9.39487 35.9325 7.85853 35.6823C7.5921 35.6823 7.47372 35.6823 7.47372 35.2604C7.47372 33.4823 7.47372 31.7343 7.47372 29.9864C7.47372 28.2384 7.47372 26.4905 7.47372 24.7727C7.47372 24.4412 7.47372 24.3206 7.88816 24.3206C8.68745 24.3206 9.48672 24.3206 10.286 24.3206C11.7239 24.2796 13.1599 24.4522 14.5489 24.833C15.8731 25.1548 17.0641 25.8929 17.9532 26.9425C18.4241 27.5024 18.7753 28.156 18.9843 28.8617C19.1933 29.5674 19.2555 30.3096 19.1669 31.0412V31.011ZM7.3257 17.2083V9.79459C7.3257 9.01103 7.32569 9.13157 7.91775 9.04116C9.77895 8.74849 11.6779 8.82008 13.5127 9.25212C14.359 9.42529 15.1579 9.78478 15.8534 10.3054C16.5489 10.826 17.1241 11.4951 17.5388 12.2658C17.9077 12.9576 18.109 13.729 18.126 14.516C18.1429 15.3029 17.9751 16.0826 17.6362 16.7901C17.2974 17.4976 16.7975 18.1126 16.1781 18.5837C15.5587 19.0548 14.8377 19.3685 14.0752 19.4987C12.8615 19.7097 11.6181 19.7398 10.6708 19.8302L7.71051 19.6494C7.47368 19.6494 7.44409 19.6494 7.44409 19.348C7.44409 18.6247 7.44409 17.9316 7.44409 17.2384L7.3257 17.2083ZM23.9626 22.8439C23.5186 22.5124 23.0449 22.2412 22.5121 21.9097L22.7489 21.6987C24.2041 20.5129 25.2559 18.891 25.7553 17.0628C26.2548 15.2346 26.1765 13.2928 25.5316 11.5124C24.6692 9.28098 23.0234 7.45518 20.9135 6.38912C18.495 5.16566 15.8285 4.53605 13.1279 4.55076C9.27948 4.55076 5.40147 4.55076 1.52346 4.55076C1.22887 4.56717 0.943396 4.66059 0.69458 4.822C0.451571 4.98805 0.259028 5.21997 0.138708 5.49157C0.0183889 5.76318 -0.024897 6.06363 0.0137207 6.35897V32.096C0.0137207 34.4165 0.0137207 36.7371 0.0137207 39.0576C0.0151571 39.4227 0.0960425 39.7829 0.250551 40.1124C0.388538 40.3662 0.596861 40.573 0.849561 40.707C1.10226 40.8409 1.38813 40.8962 1.67149 40.8658H5.46068C8.74663 40.8658 12.0622 40.8658 15.3777 40.685C16.7337 40.6148 18.0809 40.4233 19.4038 40.1124C21.7573 39.6392 23.8615 38.311 25.3244 36.3754C26.1949 35.3345 26.8336 34.1139 27.1964 32.7977C27.5592 31.4814 27.6376 30.1008 27.4262 28.7508C27.2586 27.5965 26.8593 26.4898 26.2532 25.4994C25.6472 24.5091 24.8473 23.6565 23.9034 22.9946" fill="white"/>
<path d="M134.678 17.6C133.842 18.8946 132.549 19.812 131.067 20.1616C130.031 20.4027 128.906 20.463 127.84 20.6137C127.544 20.6137 127.396 20.6136 127.455 20.2219V14.9479C127.455 13.2301 127.455 11.5424 127.455 9.85475C127.455 9.49311 127.455 9.31228 127.929 9.28214C129.152 9.05609 130.406 9.05609 131.629 9.28214C132.715 9.55676 133.679 10.1917 134.371 11.0868C135.062 11.9818 135.441 13.0859 135.448 14.2246C135.543 15.4001 135.285 16.5773 134.708 17.6H134.678ZM146.549 37.8821L137.668 25.526L136.425 23.778L137.698 23.2356C139.716 22.4309 141.395 20.9332 142.444 19.0015C143.493 17.0699 143.845 14.8258 143.441 12.6575C143.15 11.0523 142.45 9.55312 141.411 8.31013C140.372 7.06713 139.03 6.12403 137.52 5.57531C135.385 4.74924 133.113 4.35015 130.83 4.39994C127.869 4.39994 124.909 4.39994 121.949 4.39994H121.594C121.367 4.36104 121.135 4.37624 120.916 4.44434C120.696 4.51244 120.495 4.63159 120.329 4.79236C120.162 4.95312 120.035 5.15111 119.956 5.37067C119.878 5.59024 119.85 5.82537 119.877 6.05749V38.9369C119.86 39.1618 119.89 39.3877 119.965 39.5999C120.04 39.812 120.158 40.0056 120.312 40.1679C120.466 40.3302 120.652 40.4574 120.857 40.5414C121.063 40.6253 121.283 40.6639 121.505 40.6548H125.738C125.998 40.6782 126.258 40.6253 126.489 40.5024C126.72 40.3796 126.911 40.1919 127.041 39.9616C127.192 39.6205 127.273 39.2511 127.277 38.8767C127.277 34.4465 127.277 30.0465 127.277 25.6164V25.1041C127.612 25.075 127.949 25.075 128.284 25.1041C128.373 25.1044 128.461 25.1234 128.542 25.1597C128.624 25.1959 128.697 25.2488 128.758 25.315L134.234 33C135.833 35.2301 137.431 37.4602 139 39.7205C139.201 40.0319 139.479 40.2828 139.807 40.4472C140.135 40.6115 140.501 40.6832 140.865 40.6548C142.345 40.6548 143.826 40.6548 145.335 40.6548C145.587 40.6897 145.844 40.6565 146.079 40.5586C146.315 40.4607 146.521 40.3015 146.677 40.0969C146.833 39.8924 146.933 39.6497 146.968 39.3932C147.003 39.1367 146.97 38.8754 146.875 38.6356C146.752 38.3724 146.592 38.1288 146.401 37.9123" fill="white"/>
<path d="M179.29 4.33971H177.307C177.022 4.38094 176.75 4.48369 176.507 4.64108C176.267 4.79472 176.074 5.01568 175.954 5.27754C175.833 5.5394 175.789 5.8311 175.827 6.11781V26.6411L175.501 26.2493C173.429 23.6575 171.327 21.0657 169.255 18.4438L162.357 9.85479L158.479 4.97259C158.32 4.76776 158.118 4.60188 157.887 4.48714C157.656 4.3724 157.404 4.31172 157.147 4.30957H154.956C154.655 4.33945 154.363 4.43176 154.098 4.58082C153.857 4.72665 153.664 4.94182 153.542 5.19923C153.421 5.45664 153.378 5.74477 153.417 6.02738V39.1781C153.417 39.9013 153.743 40.5945 154.66 40.6849C155.429 40.7301 156.2 40.7301 156.969 40.6849C157.225 40.6789 157.472 40.5949 157.68 40.4438C157.92 40.2827 158.112 40.056 158.232 39.7896C158.352 39.5232 158.397 39.2278 158.361 38.937V17.1178C158.494 17.157 158.609 17.2423 158.686 17.3589L167.774 28.6904C170.883 32.5479 173.991 36.3753 177.07 40.263C177.328 40.6081 177.675 40.8748 178.071 41.0341C178.468 41.1935 178.899 41.2395 179.32 41.1671C179.56 41.168 179.795 41.1043 180.003 40.9826C180.211 40.8609 180.384 40.6854 180.504 40.474C180.659 40.1233 180.739 39.7434 180.741 39.3589C180.741 28.2986 180.741 17.2384 180.741 6.20822C180.756 6.12859 180.756 6.04674 180.741 5.96711C180.753 5.76176 180.723 5.55604 180.655 5.36266C180.586 5.16927 180.478 4.99232 180.34 4.84268C180.201 4.69304 180.034 4.57386 179.848 4.49255C179.663 4.41123 179.463 4.36949 179.261 4.36986" fill="white"/>
<path d="M111.943 12.8082V6.08765C111.988 5.79281 111.944 5.49103 111.818 5.22204C111.691 4.95306 111.487 4.72949 111.233 4.5808C110.949 4.43305 110.634 4.36049 110.315 4.36984C109.782 4.36984 109.249 4.36984 108.746 4.36984C108.525 4.33275 108.299 4.34718 108.084 4.41203C107.87 4.47688 107.672 4.59046 107.507 4.74423C107.342 4.898 107.213 5.08796 107.13 5.29978C107.047 5.5116 107.013 5.73976 107.029 5.9671C107.029 6.90134 107.029 7.83559 107.029 8.76984C107.029 14.6465 107.029 20.5232 107.029 26.3698C107.005 27.7306 106.906 29.0889 106.733 30.4383C106.636 31.3795 106.316 32.2825 105.8 33.0699C105.284 33.8573 104.589 34.5055 103.773 34.9589C101.603 36.2783 99.032 36.7395 96.5496 36.2548C95.3278 36.118 94.1861 35.569 93.3063 34.6952C92.4265 33.8213 91.8592 32.6729 91.6947 31.4328C91.2846 29.0148 91.0963 26.5631 91.1322 24.1096C91.1322 18.0822 91.1322 12.0548 91.1322 6.17806C91.1448 5.94718 91.1448 5.71577 91.1322 5.48489C91.0677 5.14178 90.8808 4.83507 90.6076 4.62368C90.3344 4.41229 89.9941 4.31116 89.6521 4.3397H85.182C84.8914 4.35521 84.608 4.43765 84.3531 4.5808C84.1069 4.73043 83.9087 4.94963 83.7826 5.21179C83.6565 5.47394 83.6079 5.76775 83.6427 6.0575V16.4246C83.6427 20.2822 83.6427 24.1397 83.6427 27.9972C83.6488 29.354 83.7876 30.7068 84.0571 32.0356C84.3707 33.7268 85.0698 35.3195 86.0981 36.6856C87.1264 38.0518 88.4552 39.1532 89.9777 39.9013C92.1929 40.8868 94.5767 41.4192 96.9937 41.4685C98.3326 41.5183 99.6729 41.4172 100.99 41.1671C103.137 40.8649 105.173 40.0148 106.911 38.6959C108.897 37.2213 110.32 35.0912 110.937 32.6685C111.436 30.6999 111.685 28.6742 111.677 26.6411C111.677 24.2 111.677 21.7287 111.677 19.2876V12.8082" fill="white"/>
<path d="M241.605 35.9534H227.662C227.495 35.9845 227.325 35.9845 227.159 35.9534C227.091 35.9327 227.031 35.8936 226.984 35.8405C226.937 35.7874 226.905 35.7222 226.892 35.652C226.863 35.2306 226.863 34.8077 226.892 34.3863V24.4712C226.892 23.989 226.892 23.989 227.366 23.989H234.056C234.249 24.0192 234.446 24.0069 234.634 23.9528C234.822 23.8988 234.996 23.8042 235.145 23.6756C235.294 23.547 235.413 23.3873 235.496 23.2074C235.579 23.0275 235.623 22.8315 235.625 22.6328C235.699 21.8813 235.699 21.1241 235.625 20.3726C235.589 20.1606 235.494 19.9634 235.353 19.8035C235.212 19.6436 235.029 19.5275 234.826 19.4684C234.522 19.4199 234.212 19.4199 233.908 19.4684C231.747 19.4684 229.556 19.4684 227.395 19.4684H226.951V9.19173H241.309C242.197 9.19173 242.878 8.89036 242.937 7.89584C242.996 7.12348 242.996 6.34767 242.937 5.5753C242.891 5.33181 242.773 5.10854 242.598 4.93597C242.423 4.7634 242.201 4.6499 241.96 4.61092C241.626 4.565 241.288 4.565 240.954 4.61092H229.527C226.833 4.61092 224.139 4.61092 221.445 4.61092C221.19 4.5709 220.929 4.59211 220.683 4.67289C220.438 4.75367 220.214 4.89177 220.03 5.07618C219.846 5.26059 219.707 5.48623 219.623 5.73508C219.54 5.98393 219.515 6.24913 219.551 6.50954C219.551 9.10133 219.551 11.6931 219.551 14.2849V39.2082C219.566 39.5557 219.657 39.8953 219.817 40.2027C219.974 40.4507 220.195 40.6495 220.457 40.7772C220.718 40.9048 221.009 40.9564 221.297 40.926H241.25C241.568 40.9648 241.89 40.9014 242.172 40.7448C242.453 40.5881 242.679 40.3459 242.819 40.052C243.115 39.3589 243.292 38.6356 243.529 37.9424C243.571 37.7618 243.574 37.5741 243.538 37.3921C243.502 37.2101 243.429 37.0381 243.322 36.8876C243.155 36.6531 242.93 36.4681 242.67 36.3515C242.41 36.235 242.124 36.1912 241.842 36.2246" fill="white"/>
<path d="M273.014 35.8328C273.022 35.5362 272.943 35.2438 272.789 34.9923C272.634 34.7407 272.41 34.5413 272.144 34.419C271.879 34.2967 271.583 34.257 271.296 34.3048C271.008 34.3525 270.741 34.4857 270.527 34.6876C269.75 35.2997 268.851 35.7317 267.892 35.9534C266.056 36.4204 264.134 36.4204 262.297 35.9534C260.91 35.6905 259.598 35.1123 258.46 34.2617C257.322 33.4112 256.387 32.3103 255.725 31.041C254.626 28.8044 254.048 26.3394 254.038 23.8383C253.998 22.147 254.077 20.455 254.275 18.7753C254.522 16.7578 255.113 14.7997 256.022 12.989C256.956 11.0997 258.535 9.62135 260.462 8.83006C261.75 8.30619 263.131 8.05992 264.518 8.10678C266.279 8.10875 268 8.64375 269.461 9.64377C269.935 9.97528 270.32 10.3671 270.764 10.6986C270.939 10.8435 271.148 10.9397 271.371 10.9776C271.593 11.0155 271.822 10.9939 272.034 10.9149C272.245 10.8359 272.434 10.7022 272.579 10.5269C272.725 10.3516 272.824 10.1408 272.866 9.91499C272.99 8.97627 273.039 8.02894 273.014 7.08213C273.012 6.79649 272.93 6.51734 272.778 6.27723C272.626 6.03712 272.41 5.84592 272.155 5.72596L270.527 4.94239C268.75 4.15241 266.862 3.654 264.932 3.46568C263.152 3.34015 261.363 3.50291 259.633 3.94788C255.891 4.81531 252.545 6.93814 250.131 9.97528C247.198 13.64 245.627 18.2382 245.69 22.9643C245.68 24.8905 245.939 26.8083 246.46 28.6602C247.316 31.9724 249.119 34.9512 251.64 37.2191C254.909 40.1121 259.157 41.5932 263.481 41.3479C264.534 41.3019 265.583 41.1811 266.62 40.9862C268.676 40.6376 270.623 39.8013 272.303 38.5451C272.559 38.3359 272.745 38.0519 272.836 37.7314C272.895 37.0899 272.895 36.4442 272.836 35.8027" fill="white"/>
<path d="M214.547 5.00281C214.38 4.7714 214.153 4.59043 213.893 4.47904C213.632 4.36764 213.347 4.32995 213.067 4.36994H186.632C186.29 4.36032 185.957 4.48209 185.699 4.71103C185.441 4.93998 185.277 5.25931 185.24 5.60554C185.24 6.35896 185.24 7.11239 185.24 7.86581C185.256 8.1332 185.337 8.39228 185.477 8.61924C185.632 8.85123 185.846 9.03566 186.097 9.15253C186.347 9.2694 186.624 9.31426 186.898 9.28226H195.779C196.49 9.28226 196.371 9.28226 196.371 9.85487C196.371 19.4987 196.371 29.1727 196.371 38.8165C196.344 39.0554 196.369 39.2975 196.445 39.5252C196.521 39.753 196.646 39.9608 196.81 40.1337C196.974 40.3066 197.174 40.4403 197.395 40.5252C197.616 40.6101 197.853 40.6441 198.088 40.6247H202.114C202.477 40.6282 202.834 40.5347 203.15 40.3535C203.396 40.2038 203.595 39.9846 203.721 39.7225C203.847 39.4603 203.896 39.1665 203.861 38.8768V9.82472C203.861 9.28226 203.861 9.28226 204.394 9.28226H213.541C213.734 9.30813 213.93 9.29152 214.117 9.23353C214.303 9.17555 214.475 9.07755 214.621 8.94615C214.767 8.81474 214.883 8.65298 214.963 8.47181C215.042 8.29064 215.082 8.09428 215.08 7.89596C215.124 7.12307 215.124 6.3483 215.08 5.57542C215.065 5.36865 214.993 5.17035 214.873 5.00281" fill="white"/>
<path d="M53.3289 40.5343L54.3058 39.6904C59.2416 35.107 62.7162 29.1241 64.282 22.5123C65.2587 18.3953 65.0218 14.0767 63.6012 10.0959C62.7904 7.74005 61.4876 5.59114 59.7824 3.79727C58.1025 2.10962 56.0823 0.813944 53.8618 0H53.5953C54.513 0 55.4603 0 56.378 0C58.7472 0.0524665 61.0671 0.698654 63.1325 1.88138C65.1978 3.0641 66.945 4.74689 68.2193 6.78082C70.0743 9.4543 71.226 12.5669 71.5644 15.8219C71.8234 18.7592 71.4184 21.7179 70.3803 24.4712C68.4559 29.862 64.9531 34.5219 60.3449 37.8219C57.456 39.8494 54.2955 41.4429 50.9606 42.5534C51.4047 41.4685 51.908 40.4137 52.2928 39.2986C53.9633 34.6764 54.6494 29.7456 54.3058 24.8329C54.1372 22.387 53.7306 19.9642 53.0921 17.6C52.5169 15.314 51.4558 13.1845 49.9838 11.3617C48.5738 9.59684 46.6074 8.38298 44.4184 7.92604C43.2925 7.67908 42.1255 7.70305 41.0103 7.99603C39.8951 8.28902 38.8624 8.84293 37.9945 9.61371C37.2544 10.2466 36.6032 10.9096 35.9223 11.5726C37.4991 8.49492 39.7349 5.81713 42.4646 3.737C44.202 2.41301 46.2374 1.55306 48.3852 1.23563C49.9067 0.98023 51.4662 1.09859 52.9337 1.58086C54.4013 2.06313 55.7344 2.89535 56.8221 4.00822C58.5342 5.73959 59.8046 7.87088 60.5225 10.2164C61.5743 13.3024 62.0169 16.5695 61.825 19.8301C61.5858 23.6225 60.6731 27.3392 59.1311 30.8C57.7023 34.1539 55.8514 37.3044 53.625 40.1726L53.4177 40.4439" fill="white"/>
<path d="M50.6646 19.8001C50.1483 17.7317 49.2763 15.7727 48.0891 14.0138C47.367 12.8428 46.3316 11.9059 45.1045 11.3134C43.8774 10.7208 42.5096 10.4971 41.162 10.6686C39.8225 10.776 38.5353 11.2441 37.432 12.0247C35.971 13.1985 34.9306 14.8296 34.4717 16.6658C33.7327 19.2389 33.5808 21.9499 34.0277 24.5919C34.5076 27.8387 35.6747 30.9405 37.4484 33.6828C39.222 36.4251 41.5598 38.7423 44.2999 40.474C45.8415 41.4897 47.5598 42.1956 49.3621 42.5535C49.6285 42.5535 49.8357 42.5535 49.9245 42.2521C50.0133 41.9508 50.339 41.1069 50.5166 40.5343C51.4757 36.951 51.9342 33.2479 51.8783 29.5343C51.8783 28.7206 51.8783 27.3645 51.6711 26.0083C51.5128 23.8967 51.1458 21.8067 50.5758 19.7699" fill="white"/>
<path d="M73.3407 12.4165C73.6138 13.9498 73.782 15.5005 73.8439 17.0576C73.9529 18.6211 73.8533 20.1925 73.5479 21.7288C73.2222 23.2356 72.8078 24.7425 72.3638 26.2192C71.8997 27.732 71.2322 29.1721 70.3804 30.4987C69.5697 31.8167 68.6696 33.0755 67.6865 34.2658C66.6886 35.4574 65.5889 36.5566 64.4005 37.5507C63.2343 38.5561 61.9752 39.4443 60.6409 40.2028C59.3109 40.9834 57.9137 41.6391 56.4669 42.1617C55.0677 42.6394 53.6448 43.0418 52.204 43.3671C56.5615 44.0217 61.011 43.276 64.9324 41.234C68.8539 39.192 72.0519 35.9554 74.0808 31.9754C76.1309 28.2557 77.0457 23.9984 76.7082 19.747C76.3707 15.4957 74.7964 11.4432 72.1862 8.10687C72.5414 9.4329 73.0446 10.9096 73.3407 12.4466" fill="white"/>
</svg>
