<svg width="273" height="44" viewBox="0 0 273 44" fill="none" xmlns="http://www.w3.org/2000/svg">
<g clip-path="url(#clip0_24_13)">
<path d="M19.1532 31.3727C19.0346 32.4004 18.6199 33.3695 17.9615 34.1578C17.303 34.9461 16.4302 35.5185 15.4528 35.8028C14.4984 36.134 13.5004 36.3169 12.4925 36.3453C10.9374 36.3951 9.38114 36.2942 7.8448 36.0439C7.57837 36.0439 7.45999 36.0439 7.45999 35.622C7.45999 33.8439 7.45999 32.096 7.45999 30.348C7.45999 28.6001 7.45999 26.8521 7.45999 25.1343C7.45999 24.8028 7.45999 24.6823 7.87443 24.6823C8.67371 24.6823 9.47299 24.6823 10.2723 24.6823C11.7101 24.6413 13.1462 24.8139 14.5351 25.1946C15.8594 25.5165 17.0504 26.2545 17.9395 27.3042C18.4104 27.864 18.7616 28.5176 18.9705 29.2233C19.1795 29.929 19.2417 30.6713 19.1532 31.4028V31.3727ZM7.31196 17.5699V10.1563C7.31196 9.37269 7.31195 9.49324 7.90402 9.40283C9.76521 9.11015 11.6642 9.18175 13.499 9.61378C14.3453 9.78695 15.1442 10.1464 15.8397 10.667C16.5351 11.1876 17.1103 11.8567 17.525 12.6275C17.894 13.3192 18.0953 14.0907 18.1123 14.8776C18.1292 15.6646 17.9613 16.4442 17.6225 17.1518C17.2837 17.8593 16.7837 18.4742 16.1644 18.9453C15.545 19.4165 14.824 19.7302 14.0615 19.8604C12.8477 20.0713 11.6044 20.1015 10.6571 20.1919L7.69677 20.0111C7.45995 20.0111 7.43036 20.0111 7.43036 19.7097C7.43036 18.9864 7.43036 18.2932 7.43036 17.6001L7.31196 17.5699ZM23.9489 23.2056C23.5049 22.8741 23.0312 22.6028 22.4983 22.2713L22.7352 22.0604C24.1904 20.8746 25.2422 19.2527 25.7416 17.4245C26.241 15.5963 26.1627 13.6545 25.5179 11.8741C24.6554 9.64264 23.0097 7.81684 20.8998 6.75078C18.4812 5.52733 15.8148 4.89772 13.1142 4.91242C9.26574 4.91242 5.38774 4.91242 1.50973 4.91242C1.21513 4.92883 0.929663 5.02226 0.680847 5.18367C0.437838 5.34971 0.245295 5.58163 0.124975 5.85324C0.00465603 6.12484 -0.0386299 6.42529 -1.21957e-05 6.72064V32.4576C-1.21957e-05 34.7782 -1.21957e-05 37.0987 -1.21957e-05 39.4193C0.00142415 39.7844 0.0823096 40.1446 0.236818 40.4741C0.374805 40.7278 0.583128 40.9346 0.835828 41.0686C1.08853 41.2026 1.3744 41.2579 1.65776 41.2275H5.44695C8.7329 41.2275 12.0485 41.2275 15.364 41.0467C16.7199 40.9765 18.0672 40.7849 19.39 40.4741C21.7436 40.0009 23.8478 38.6727 25.3107 36.7371C26.1812 35.6962 26.8198 34.4756 27.1827 33.1593C27.5455 31.8431 27.6239 30.4625 27.4125 29.1124C27.2449 27.9582 26.8456 26.8514 26.2395 25.8611C25.6334 24.8708 24.8336 24.0181 23.8897 23.3563" fill="#29428B"/>
<path d="M134.664 17.9616C133.829 19.2562 132.535 20.1736 131.053 20.5232C130.017 20.7643 128.892 20.8246 127.826 20.9753C127.53 20.9753 127.382 20.9753 127.441 20.5835V15.3095C127.441 13.5917 127.441 11.9041 127.441 10.2164C127.441 9.85474 127.441 9.67391 127.915 9.64378C129.138 9.41773 130.392 9.41773 131.615 9.64378C132.701 9.9184 133.666 10.5534 134.357 11.4484C135.049 12.3434 135.428 13.4475 135.434 14.5862C135.529 15.7617 135.271 16.9389 134.694 17.9616H134.664ZM146.535 38.2438L137.654 25.8876L136.411 24.1397L137.684 23.5972C139.703 22.7925 141.382 21.2948 142.43 19.3632C143.479 17.4315 143.832 15.1874 143.427 13.0191C143.136 11.414 142.436 9.91475 141.397 8.67176C140.358 7.42877 139.016 6.48566 137.506 5.93694C135.371 5.11087 133.1 4.71178 130.816 4.76158C127.856 4.76158 124.895 4.76158 121.935 4.76158H121.58C121.354 4.72267 121.122 4.73787 120.902 4.80598C120.682 4.87408 120.481 4.99323 120.315 5.15399C120.148 5.31476 120.021 5.51274 119.942 5.73231C119.864 5.95187 119.837 6.187 119.863 6.41912V39.2986C119.846 39.5234 119.876 39.7493 119.951 39.9615C120.026 40.1737 120.144 40.3672 120.298 40.5295C120.452 40.6918 120.638 40.8191 120.843 40.903C121.049 40.9869 121.27 41.0256 121.491 41.0164H125.724C125.984 41.0398 126.244 40.9869 126.475 40.8641C126.706 40.7412 126.898 40.5535 127.027 40.3232C127.179 39.9821 127.259 39.6127 127.264 39.2383C127.264 34.8082 127.264 30.4082 127.264 25.978V25.4657C127.599 25.4366 127.935 25.4366 128.27 25.4657C128.359 25.4661 128.447 25.485 128.528 25.5213C128.61 25.5576 128.683 25.6104 128.744 25.6767L134.22 33.3616C135.819 35.5917 137.418 37.8219 138.987 40.0821C139.187 40.3935 139.466 40.6445 139.794 40.8088C140.122 40.9731 140.487 41.0448 140.852 41.0164C142.332 41.0164 143.812 41.0164 145.322 41.0164C145.574 41.0513 145.83 41.0181 146.066 40.9202C146.301 40.8223 146.507 40.6631 146.663 40.4586C146.819 40.254 146.919 40.0113 146.954 39.7548C146.989 39.4984 146.957 39.2371 146.861 38.9972C146.738 38.7341 146.579 38.4904 146.387 38.2739" fill="#29428B"/>
<path d="M179.276 4.70135H177.293C177.008 4.74257 176.736 4.84533 176.494 5.00271C176.253 5.15636 176.061 5.37732 175.94 5.63917C175.819 5.90103 175.775 6.19273 175.813 6.47944V27.0027L175.487 26.6109C173.415 24.0191 171.313 21.4274 169.241 18.8055L162.343 10.2164L158.465 5.33422C158.306 5.12939 158.104 4.96351 157.873 4.84878C157.643 4.73404 157.39 4.67335 157.133 4.6712H154.943C154.641 4.70108 154.349 4.79339 154.084 4.94245C153.843 5.08829 153.65 5.30345 153.529 5.56086C153.408 5.81827 153.364 6.1064 153.403 6.38901V39.5397C153.403 40.263 153.729 40.9561 154.647 41.0465C155.416 41.0917 156.187 41.0917 156.956 41.0465C157.211 41.0405 157.458 40.9565 157.666 40.8055C157.907 40.6443 158.098 40.4176 158.218 40.1513C158.339 39.8849 158.383 39.5895 158.347 39.2986V17.4794C158.48 17.5186 158.595 17.6039 158.673 17.7205L167.761 29.052C170.869 32.9096 173.977 36.737 177.056 40.6246C177.315 40.9698 177.661 41.2364 178.057 41.3958C178.454 41.5551 178.886 41.6011 179.306 41.5287C179.546 41.5296 179.782 41.466 179.99 41.3443C180.197 41.2225 180.37 41.0471 180.49 40.8356C180.645 40.4849 180.726 40.105 180.727 39.7205C180.727 28.6603 180.727 17.6 180.727 6.56985C180.742 6.49023 180.742 6.40837 180.727 6.32875C180.739 6.12339 180.71 5.91768 180.641 5.72429C180.572 5.53091 180.465 5.35396 180.326 5.20431C180.187 5.05467 180.02 4.9355 179.834 4.85418C179.649 4.77286 179.449 4.73112 179.247 4.73149" fill="#29428B"/>
<path d="M111.93 13.1698V6.44928C111.974 6.15445 111.931 5.85266 111.804 5.58368C111.677 5.31469 111.473 5.09113 111.219 4.94243C110.935 4.79468 110.62 4.72213 110.301 4.73147C109.768 4.73147 109.236 4.73147 108.732 4.73147C108.511 4.69439 108.285 4.70881 108.07 4.77367C107.856 4.83852 107.658 4.95209 107.493 5.10586C107.328 5.25963 107.199 5.4496 107.116 5.66141C107.033 5.87323 106.999 6.10139 107.015 6.32873C107.015 7.26298 107.015 8.19722 107.015 9.13147C107.015 15.0082 107.015 20.8849 107.015 26.7315C106.991 28.0922 106.893 29.4505 106.719 30.8C106.622 31.7411 106.302 32.6442 105.786 33.4315C105.271 34.2189 104.575 34.8672 103.759 35.3205C101.589 36.6399 99.0182 37.1012 96.5359 36.6164C95.3141 36.4796 94.1724 35.9306 93.2925 35.0568C92.4127 34.183 91.8454 33.0345 91.681 31.7945C91.2709 29.3764 91.0825 26.9248 91.1185 24.4712C91.1185 18.4438 91.1185 12.4164 91.1185 6.53969C91.1311 6.30882 91.1311 6.0774 91.1185 5.84653C91.0539 5.50342 90.8671 5.1967 90.5939 4.98531C90.3207 4.77393 89.9804 4.67279 89.6384 4.70133H85.1683C84.8777 4.71684 84.5942 4.79928 84.3394 4.94243C84.0932 5.09207 83.895 5.31127 83.7689 5.57342C83.6427 5.83557 83.5941 6.12939 83.6289 6.41914V16.7863C83.6289 20.6438 83.6289 24.5013 83.6289 28.3589C83.635 29.7156 83.7739 31.0685 84.0434 32.3972C84.357 34.0884 85.0561 35.6811 86.0844 37.0473C87.1127 38.4134 88.4415 39.5148 89.964 40.263C92.1792 41.2484 94.563 41.7809 96.9799 41.8301C98.3189 41.8799 99.6592 41.7788 100.976 41.5287C103.123 41.2265 105.16 40.3764 106.897 39.0575C108.883 37.5829 110.306 35.4528 110.923 33.0301C111.422 31.0616 111.671 29.0358 111.663 27.0027C111.663 24.5616 111.663 22.0904 111.663 19.6493V13.1698" fill="#29428B"/>
<path d="M241.591 36.315H227.648C227.482 36.3462 227.311 36.3462 227.145 36.315C227.078 36.2943 227.017 36.2553 226.97 36.2021C226.923 36.149 226.892 36.0838 226.878 36.0136C226.849 35.5922 226.849 35.1693 226.878 34.7479V24.8328C226.878 24.3506 226.878 24.3506 227.352 24.3506H234.042C234.235 24.3809 234.432 24.3685 234.62 24.3145C234.808 24.2604 234.982 24.1659 235.131 24.0373C235.28 23.9086 235.4 23.749 235.483 23.5691C235.565 23.3891 235.609 23.1932 235.611 22.9945C235.685 22.2429 235.685 21.4857 235.611 20.7342C235.575 20.5223 235.481 20.3251 235.339 20.1652C235.198 20.0053 235.015 19.8891 234.812 19.8301C234.508 19.7815 234.198 19.7815 233.894 19.8301C231.733 19.8301 229.543 19.8301 227.382 19.8301H226.938V9.55337H241.295C242.183 9.55337 242.864 9.252 242.923 8.25748C242.982 7.48511 242.982 6.7093 242.923 5.93694C242.878 5.69344 242.759 5.47018 242.585 5.2976C242.41 5.12503 242.187 5.01154 241.946 4.97256C241.612 4.92663 241.274 4.92663 240.94 4.97256H229.513C226.819 4.97256 224.125 4.97256 221.431 4.97256C221.176 4.93254 220.915 4.95374 220.67 5.03452C220.424 5.1153 220.2 5.2534 220.016 5.43781C219.832 5.62222 219.693 5.84786 219.61 6.09671C219.527 6.34557 219.502 6.61077 219.537 6.87118C219.537 9.46296 219.537 12.0547 219.537 14.6465V39.5698C219.552 39.9173 219.643 40.257 219.803 40.5643C219.96 40.8123 220.182 41.0111 220.443 41.1388C220.704 41.2665 220.995 41.318 221.283 41.2876H241.236C241.554 41.3264 241.877 41.2631 242.158 41.1064C242.439 40.9497 242.665 40.7075 242.805 40.4136C243.101 39.7205 243.279 38.9972 243.515 38.3041C243.557 38.1234 243.56 37.9357 243.524 37.7537C243.489 37.5718 243.415 37.3997 243.308 37.2493C243.142 37.0148 242.917 36.8297 242.657 36.7132C242.396 36.5966 242.11 36.5528 241.828 36.5863" fill="#29428B"/>
<path d="M273 36.1944C273.008 35.8978 272.93 35.6054 272.775 35.3539C272.62 35.1024 272.396 34.903 272.13 34.7807C271.865 34.6583 271.57 34.6186 271.282 34.6664C270.994 34.7142 270.727 34.8473 270.513 35.0492C269.736 35.6614 268.837 36.0933 267.879 36.315C266.042 36.782 264.12 36.782 262.284 36.315C260.896 36.0521 259.584 35.4739 258.446 34.6234C257.308 33.7728 256.374 32.672 255.712 31.4027C254.612 29.166 254.035 26.7011 254.024 24.1999C253.984 22.5087 254.064 20.8167 254.261 19.1369C254.508 17.1194 255.099 15.1613 256.008 13.3506C256.943 11.4613 258.521 9.98299 260.448 9.19169C261.736 8.66783 263.117 8.42156 264.504 8.46841C266.265 8.47038 267.986 9.00538 269.448 10.0054C269.921 10.3369 270.306 10.7287 270.75 11.0602C270.925 11.2051 271.134 11.3013 271.357 11.3392C271.579 11.3771 271.808 11.3555 272.02 11.2765C272.232 11.1975 272.42 11.0638 272.566 10.8886C272.712 10.7133 272.81 10.5024 272.852 10.2766C272.976 9.3379 273.025 8.39057 273 7.44377C272.998 7.15812 272.916 6.87897 272.764 6.63886C272.612 6.39875 272.396 6.20755 272.141 6.08759L270.513 5.30402C268.737 4.51404 266.848 4.01563 264.918 3.82731C263.138 3.70178 261.349 3.86454 259.619 4.30952C255.877 5.17694 252.531 7.29977 250.117 10.3369C247.185 14.0017 245.613 18.5998 245.676 23.3259C245.666 25.2521 245.925 27.17 246.446 29.0218C247.302 32.334 249.105 35.3128 251.626 37.5808C254.895 40.4737 259.143 41.9549 263.468 41.7095C264.521 41.6635 265.569 41.5427 266.606 41.3479C268.662 40.9992 270.609 40.163 272.289 38.9068C272.545 38.6976 272.731 38.4135 272.822 38.0931C272.881 37.4516 272.881 36.8058 272.822 36.1643" fill="#29428B"/>
<path d="M214.534 5.36444C214.366 5.13303 214.14 4.95207 213.879 4.84067C213.619 4.72927 213.333 4.69159 213.054 4.73157H186.618C186.276 4.72195 185.943 4.84372 185.685 5.07267C185.427 5.30161 185.264 5.62095 185.227 5.96717C185.227 6.7206 185.227 7.47402 185.227 8.22745C185.242 8.49483 185.324 8.75392 185.463 8.98087C185.618 9.21286 185.833 9.39729 186.083 9.51416C186.334 9.63103 186.611 9.67589 186.884 9.64389H195.765C196.476 9.64389 196.357 9.6439 196.357 10.2165C196.357 19.8603 196.357 29.5343 196.357 39.1781C196.33 39.4171 196.356 39.6591 196.432 39.8868C196.507 40.1146 196.632 40.3224 196.796 40.4953C196.96 40.6682 197.16 40.802 197.381 40.8869C197.602 40.9718 197.839 41.0057 198.074 40.9864H202.1C202.463 40.9898 202.82 40.8963 203.137 40.7151C203.383 40.5655 203.581 40.3463 203.707 40.0841C203.833 39.822 203.882 39.5282 203.847 39.2384V10.1864C203.847 9.64389 203.847 9.64389 204.38 9.64389H213.527C213.72 9.66976 213.917 9.65315 214.103 9.59517C214.289 9.53718 214.461 9.43919 214.607 9.30778C214.753 9.17638 214.87 9.01461 214.949 8.83344C215.028 8.65227 215.068 8.45591 215.067 8.25759C215.11 7.48471 215.11 6.70994 215.067 5.93705C215.051 5.73028 214.979 5.53198 214.859 5.36444" fill="#29428B"/>
<path d="M53.3152 40.8959L54.2921 40.0521C59.2278 35.4687 62.7025 29.4857 64.2683 22.874C65.2449 18.757 65.0081 14.4383 63.5875 10.4575C62.7767 8.10168 61.4738 5.95277 59.7687 4.1589C58.0888 2.47126 56.0686 1.17558 53.848 0.361633H53.5816C54.4993 0.361633 55.4466 0.361633 56.3643 0.361633C58.7334 0.4141 61.0533 1.06029 63.1187 2.24301C65.1841 3.42573 66.9312 5.10852 68.2055 7.14246C70.0606 9.81593 71.2123 12.9285 71.5507 16.1836C71.8097 19.1209 71.4047 22.0796 70.3666 24.8329C68.4421 30.2236 64.9394 34.8836 60.3311 38.1836C57.4423 40.211 54.2818 41.8045 50.9469 42.9151C51.391 41.8301 51.8942 40.7753 52.2791 39.6603C53.9495 35.0381 54.6357 30.1072 54.2921 25.1945C54.1235 22.7486 53.7169 20.3258 53.0783 17.9616C52.5031 15.6757 51.4421 13.5461 49.97 11.7233C48.56 9.95847 46.5937 8.74461 44.4046 8.28768C43.2787 8.04071 42.1118 8.06468 40.9966 8.35767C39.8814 8.65065 38.8487 9.20456 37.9808 9.97534C37.2407 10.6082 36.5894 11.2712 35.9086 11.9342C37.4854 8.85655 39.7212 6.17876 42.4508 4.09864C44.1883 2.77465 46.2237 1.91469 48.3715 1.59726C49.893 1.34186 51.4525 1.46022 52.92 1.9425C54.3875 2.42477 55.7207 3.25699 56.8084 4.36986C58.5205 6.10122 59.7909 8.23251 60.5087 10.5781C61.5605 13.6641 62.0032 16.9312 61.8113 20.1918C61.5721 23.9841 60.6593 27.7009 59.1174 31.1616C57.6886 34.5155 55.8377 37.6661 53.6112 40.5342L53.404 40.8055" fill="#D43C38"/>
<path d="M50.6509 20.1617C50.1345 18.0933 49.2626 16.1343 48.0754 14.3754C47.3533 13.2044 46.3178 12.2676 45.0908 11.675C43.8637 11.0824 42.4959 10.8587 41.1483 11.0302C39.8088 11.1376 38.5215 11.6057 37.4183 12.3864C35.9572 13.5601 34.9168 15.1912 34.458 17.0275C33.7189 19.6006 33.5671 22.3115 34.0139 24.9535C34.4938 28.2003 35.661 31.3022 37.4346 34.0445C39.2083 36.7867 41.5461 39.1039 44.2862 40.8357C45.8277 41.8513 47.5461 42.5572 49.3483 42.9151C49.6148 42.9151 49.822 42.9151 49.9108 42.6138C49.9996 42.3124 50.3252 41.4686 50.5028 40.896C51.462 37.3126 51.9204 33.6095 51.8646 29.896C51.8646 29.0823 51.8646 27.7261 51.6574 26.3699C51.499 24.2583 51.1321 22.1683 50.5621 20.1316" fill="#29428B"/>
<path d="M73.3269 12.7781C73.6001 14.3114 73.7683 15.8622 73.8302 17.4192C73.9391 18.9827 73.8395 20.5541 73.5341 22.0904C73.2085 23.5973 72.7941 25.1041 72.35 26.5808C71.886 28.0936 71.2185 29.5338 70.3666 30.8603C69.556 32.1784 68.6558 33.4372 67.6727 34.6274C66.6748 35.819 65.5752 36.9183 64.3868 37.9123C63.2206 38.9178 61.9615 39.8059 60.6272 40.5644C59.2971 41.345 57.9 42.0007 56.4531 42.5233C55.0539 43.001 53.6311 43.4034 52.1903 43.7288C56.5478 44.3833 60.9973 43.6376 64.9187 41.5956C68.8401 39.5536 72.0382 36.3171 74.067 32.337C76.1172 28.6173 77.0319 24.36 76.6945 20.1087C76.357 15.8573 74.7827 11.8048 72.1724 8.46851C72.5277 9.79453 73.0309 11.2713 73.3269 12.8082" fill="#29428B"/>
</g>
<defs>
<clipPath id="clip0_24_13">
<rect width="273" height="44" fill="white"/>
</clipPath>
</defs>
</svg>
