<svg id="Layer_1" data-name="Layer 1" xmlns="http://www.w3.org/2000/svg" viewBox="0 0 10.04 8.72"><defs><style>.cls-1{fill:#224797;}</style></defs><title>my-transactions-icons</title><path class="cls-1" d="M320.3,808h.05v0h0l-1.66-4.2a.27.27,0,0,0-.07-.08.21.21,0,0,0-.11,0,.2.2,0,0,0-.11,0,.16.16,0,0,0-.08.08l-.72,1.13-.15-.07a.19.19,0,0,0-.15,0,.18.18,0,0,0-.13.09.17.17,0,0,0,0,.14.19.19,0,0,0,.1.12l.32.17a.19.19,0,0,0,.15,0,.2.2,0,0,0,.13-.08l.6-1,1.4,3.57-4.08.67.6-1a.17.17,0,0,0,0-.14.21.21,0,0,0-.1-.11l-2.74-1.45.2-.33a.17.17,0,0,0,0-.14.18.18,0,0,0-.09-.1.2.2,0,0,0-.15,0,.24.24,0,0,0-.12.07l-.31.49a.18.18,0,0,0,.07.26l2.75,1.45-.72,1.14a.19.19,0,0,0,0,.1.13.13,0,0,0,0,.1s0,0,.06.06a.22.22,0,0,0,.14,0l4.75-.78h.09v0Z" transform="translate(-310.31 -800.17)"/><path class="cls-1" d="M316.07,805.58l1.47-2.33a.16.16,0,0,0,0-.15.19.19,0,0,0-.09-.11l-2.64-1.4.72-1.14a.12.12,0,0,0,0-.1.17.17,0,0,0,0-.1.23.23,0,0,0-.1-.07.25.25,0,0,0-.12,0l-4.84.73-.08,0-.06.06a.13.13,0,0,0,0,.08.19.19,0,0,0,0,.08l1.73,4.21a.28.28,0,0,0,.09.1l.09,0a.25.25,0,0,0,.12,0,.27.27,0,0,0,.08-.07l.72-1.14,2.64,1.4.08,0H316l.07,0Z" transform="translate(-310.31 -800.17)"/></svg>