<svg width="16" height="13" viewBox="0 0 16 13" fill="none" xmlns="http://www.w3.org/2000/svg">
<path d="M13.2999 9.99815C13.3017 9.99636 13.3031 9.9942 13.3038 9.99185C13.3038 9.99185 13.3078 9.98556 13.3105 9.98136C13.312 9.97987 13.3131 9.97807 13.3138 9.97612C13.3163 9.97327 13.3183 9.97008 13.3197 9.96667C13.3204 9.96472 13.3215 9.96292 13.323 9.96143L13.329 9.95198C13.3298 9.94965 13.3312 9.9475 13.333 9.94569L13.3376 9.93834L13.3422 9.931C13.3442 9.92832 13.346 9.92551 13.3475 9.9226L13.3508 9.91736L13.3493 9.90537L13.3472 9.89443L13.3437 9.8856L11.6753 5.69253C11.6621 5.65891 11.6387 5.62957 11.6078 5.60794C11.577 5.58631 11.54 5.5733 11.5012 5.57042C11.4624 5.56755 11.4234 5.57493 11.3888 5.59171C11.3542 5.60849 11.3254 5.63396 11.3058 5.66514L10.5872 6.8046L10.4421 6.72796C10.3953 6.70318 10.3394 6.69667 10.2869 6.70985C10.2344 6.72302 10.1895 6.75481 10.1621 6.79822C10.1348 6.84163 10.1271 6.89311 10.1409 6.94132C10.1547 6.98954 10.1888 7.03054 10.2357 7.05532L10.5574 7.22537C10.6043 7.25015 10.6601 7.25666 10.7127 7.24348C10.7652 7.23031 10.81 7.19851 10.8374 7.1551L11.4383 6.20241L12.8441 9.76987L8.76267 10.4374L9.36356 9.48469C9.39061 9.44182 9.39841 9.39107 9.3853 9.34333C9.37219 9.29559 9.33921 9.25468 9.29344 9.22939L6.54587 7.77732L6.75102 7.45206C6.77349 7.4089 6.77756 7.35968 6.76242 7.31422C6.74728 7.26876 6.71404 7.2304 6.66931 7.20676C6.62459 7.18312 6.57167 7.17596 6.52109 7.18668C6.47051 7.19741 6.42599 7.22524 6.39638 7.26464L6.088 7.75358C6.06062 7.79699 6.05298 7.84847 6.06677 7.89668C6.08055 7.94489 6.11463 7.9859 6.16151 8.01067L8.90682 9.46154L8.18813 10.601C8.16829 10.632 8.15855 10.6676 8.16009 10.7034C8.16163 10.7392 8.17437 10.7737 8.19679 10.8028C8.21358 10.8256 8.23575 10.8444 8.26165 10.8581C8.30298 10.88 8.3515 10.8879 8.39877 10.8802L13.151 10.1C13.1527 10.1013 13.1546 10.1023 13.1567 10.103L13.1711 10.0994L13.1832 10.0946C13.1851 10.0919 13.1869 10.0891 13.1885 10.0862L13.1918 10.0809C13.1931 10.0779 13.1949 10.0751 13.1971 10.0725L13.201 10.0662C13.2021 10.0635 13.2036 10.061 13.2057 10.0589L13.211 10.0505C13.211 10.0505 13.211 10.0505 13.2149 10.0442C13.2171 10.0416 13.2189 10.0388 13.2202 10.0358C13.2223 10.0337 13.2239 10.0312 13.2249 10.0285C13.2272 10.026 13.229 10.0231 13.2301 10.0201C13.2325 10.0176 13.2342 10.0147 13.2354 10.0117L13.246 9.99488L13.2999 9.99815Z" fill="#224797"/>
<path d="M9.07482 7.57797L10.5445 5.24779C10.5719 5.2044 10.579 5.15267 10.5642 5.10397C10.5495 5.05526 10.5141 5.01359 10.4659 4.9881L7.82697 3.59346L8.54529 2.45459C8.56594 2.42322 8.576 2.38694 8.57426 2.35017C8.57251 2.31339 8.55902 2.27772 8.53544 2.24747C8.51187 2.21723 8.47921 2.19373 8.44145 2.17984C8.40369 2.16594 8.36246 2.16225 8.32277 2.16921L3.48296 2.90148C3.45285 2.90617 3.42433 2.91679 3.39939 2.93259C3.37446 2.94839 3.35371 2.969 3.33859 2.99297C3.32347 3.01694 3.31435 3.04369 3.31187 3.07136C3.30939 3.09903 3.3136 3.12694 3.32421 3.15316L5.05133 7.356C5.06864 7.39778 5.10146 7.43293 5.14408 7.45535C5.17063 7.46925 5.19997 7.47809 5.23027 7.48133C5.27005 7.48459 5.30986 7.47753 5.34506 7.46098C5.38027 7.44443 5.40941 7.41907 5.42909 7.38785L6.14741 6.24898L8.7898 7.64547C8.81368 7.65809 8.83999 7.66635 8.86724 7.66979C8.89449 7.67323 8.92213 7.67177 8.9486 7.6655C8.97506 7.65923 8.99983 7.64828 9.02149 7.63326C9.04315 7.61824 9.06127 7.59945 9.07482 7.57797Z" fill="#224797"/>
</svg>
