<svg width="10" height="10" viewBox="0 0 10 10" fill="none" xmlns="http://www.w3.org/2000/svg">
<path d="M9.80767 6.25282L9.09975 5.71411C9.06613 5.68822 9.04002 5.65462 9.02387 5.61648C9.00772 5.57834 9.00208 5.53691 9.00747 5.49612C9.05143 5.16921 9.05143 4.83831 9.00747 4.5114C9.00208 4.47061 9.00772 4.42918 9.02387 4.39104C9.04002 4.35289 9.06613 4.31929 9.09975 4.29341L9.80767 3.74718C9.90358 3.67398 9.9687 3.57052 9.99119 3.45558C10.0137 3.34065 9.99207 3.22186 9.93027 3.12077L9.16962 1.86796C9.10862 1.76757 9.0117 1.69135 8.89652 1.65318C8.78135 1.61501 8.65557 1.61742 8.54211 1.65999L7.6984 1.97319C7.65793 1.98812 7.61409 1.99285 7.57112 1.98693C7.52816 1.981 7.48754 1.96462 7.4532 1.93937C7.17728 1.73952 6.87558 1.57406 6.55544 1.44701C6.51536 1.43116 6.48024 1.40578 6.45346 1.37331C6.42668 1.34084 6.40914 1.30237 6.40252 1.26159L6.27069 0.410931C6.25291 0.29628 6.19218 0.191583 6.09966 0.116087C6.00714 0.0405914 5.88905 -0.000627876 5.76711 7.23125e-06H4.2392C4.11726 -0.000627876 3.99917 0.0405914 3.90665 0.116087C3.81413 0.191583 3.7534 0.29628 3.73562 0.410931L3.60379 1.26159C3.59693 1.30229 3.5793 1.34065 3.55255 1.37309C3.52579 1.40552 3.49081 1.43096 3.45087 1.44701C3.13073 1.57406 2.82903 1.73952 2.55311 1.93937C2.51889 1.96484 2.47826 1.98137 2.43524 1.9873C2.39223 1.99323 2.34833 1.98837 2.30791 1.97319L1.4642 1.65999C1.35062 1.61726 1.22463 1.6149 1.10937 1.65333C0.994098 1.69176 0.897284 1.76841 0.83669 1.86921L0.0760354 3.12203C0.0136867 3.22297 -0.00824048 3.34191 0.0142823 3.45698C0.0368051 3.57206 0.102265 3.67555 0.198637 3.74844L0.905242 4.28715C0.939292 4.31273 0.965804 4.34625 0.982204 4.38445C0.998604 4.42264 1.00433 4.46422 0.99884 4.50514C0.954876 4.83205 0.954876 5.16294 0.99884 5.48985C1.00338 5.53059 0.997343 5.57176 0.981255 5.60976C0.965167 5.64777 0.93952 5.68144 0.90656 5.70784L0.194682 6.25282C0.0976294 6.32521 0.0315577 6.42864 0.0087622 6.54387C-0.0140333 6.6591 0.00800021 6.77828 0.0707622 6.87923L0.832735 8.13204C0.893737 8.23243 0.990654 8.30865 1.10583 8.34682C1.22101 8.38499 1.34678 8.38258 1.46024 8.34001L2.30395 8.02681C2.34442 8.01188 2.38827 8.00715 2.43123 8.01307C2.4742 8.019 2.51482 8.03538 2.54915 8.06063C2.82507 8.26048 3.12678 8.42594 3.44691 8.55299C3.48685 8.56904 3.52184 8.59448 3.54859 8.62691C3.57534 8.65935 3.59297 8.69771 3.59983 8.73841L3.73166 9.58907C3.74944 9.70372 3.81018 9.80842 3.9027 9.88391C3.99522 9.95941 4.1133 10.0006 4.23525 9.99999H5.76315C5.8851 10.0006 6.00318 9.95941 6.0957 9.88391C6.18822 9.80842 6.24896 9.70372 6.26674 9.58907L6.39857 8.73841C6.40519 8.69763 6.42273 8.65916 6.44951 8.62669C6.47629 8.59422 6.51141 8.56884 6.55149 8.55299C6.87162 8.42594 7.17333 8.26048 7.44925 8.06063C7.48364 8.03549 7.52426 8.01918 7.5672 8.01326C7.61013 8.00733 7.65395 8.012 7.69445 8.02681L8.53816 8.34001C8.65162 8.38258 8.77739 8.38499 8.89257 8.34682C9.00774 8.30865 9.10466 8.23243 9.16566 8.13204L9.92632 6.87923C9.9905 6.77907 10.0139 6.66005 9.99201 6.54464C9.97015 6.42922 9.90458 6.32542 9.80767 6.25282ZM5.00118 6.83788C4.61868 6.83788 4.24477 6.73009 3.92674 6.52814C3.60871 6.32619 3.36083 6.03916 3.21445 5.70333C3.06808 5.3675 3.02978 4.99796 3.1044 4.64145C3.17902 4.28493 3.36321 3.95745 3.63368 3.70042C3.90414 3.44339 4.24874 3.26835 4.62389 3.19743C4.99903 3.12652 5.38788 3.16291 5.74126 3.30202C6.09464 3.44112 6.39668 3.67669 6.60919 3.97893C6.82169 4.28117 6.93511 4.6365 6.93511 5C6.93442 5.48723 6.73044 5.95432 6.36791 6.29885C6.00537 6.64337 5.51388 6.83722 5.00118 6.83788Z" fill="#224797"/>
</svg>
